<svg id="github" xmlns="http://www.w3.org/2000/svg" viewBox="0 0 48 48.07">
  <defs>
    <style>
      .cls-1 {
        fill: #fff;
      }

      .cls-2 {
        fill: #395165;
        fill-rule: evenodd;
      }
    </style>
  </defs>
  <ellipse id="cat" class="cls-1" cx="152.69" cy="124.33" rx="22.4" ry="23.67" transform="translate(-131.86 -95.81) rotate(-1.52)"/>
  <path id="round" class="cls-2" d="M152.61,99.92A24,24,0,0,0,145,146.69c1.2.22,1.64-.52,1.64-1.15s0-2.08,0-4.08c-6.68,1.45-8.09-3.22-8.09-3.22-1.09-2.77-2.66-3.51-2.66-3.51-2.18-1.49.16-1.46.16-1.46a5,5,0,0,1,3.68,2.47c2.14,3.67,5.62,2.61,7,2a5,5,0,0,1,1.52-3.21c-5.33-.61-10.93-2.67-10.93-11.86a9.24,9.24,0,0,1,2.47-6.44,8.66,8.66,0,0,1,.23-6.36s2-.64,6.6,2.46a23,23,0,0,1,12,0c4.58-3.1,6.59-2.46,6.59-2.46a8.62,8.62,0,0,1,.24,6.36,9.24,9.24,0,0,1,2.47,6.44c0,9.22-5.61,11.24-11,11.84a5.72,5.72,0,0,1,1.63,4.44c0,3.21,0,5.8,0,6.59s.43,1.39,1.65,1.15a24,24,0,0,0-7.6-46.77Z" transform="translate(-128.61 -99.92)"/>
</svg>
