<svg id="linkedin" xmlns="http://www.w3.org/2000/svg" viewBox="0 0 48 48">
  <defs>
    <style>
      .cls-1 {
        fill: #385165;
      }

      .cls-2 {
        fill: #fefefe;
        fill-rule: evenodd;
      }
    </style>
  </defs>
  <circle id="circle" class="cls-1" cx="250" cy="250" r="24" transform="translate(-249.32 -200.27) rotate(-5.63)"/>
  <path id="n" class="cls-2" d="M251.55,247.74a2.1,2.1,0,0,0,.2-.22,6.24,6.24,0,0,1,6.6-2.63c3.11.48,5.1,2.65,5.6,6a14.59,14.59,0,0,1,.18,2.38q0,5,0,9.94c0,.37-.09.48-.47.48-1.74,0-3.47,0-5.21,0-.38,0-.47-.11-.47-.48q0-4.63,0-9.27a7.69,7.69,0,0,0-.24-2.08,3,3,0,0,0-4.88-1.5,3.65,3.65,0,0,0-1.32,3c0,2.92,0,5.83,0,8.74,0,.39,0,.77,0,1.15s-.11.39-.41.39q-2.66,0-5.31,0c-.32,0-.43-.06-.43-.41q0-3.94,0-7.88,0-4.86,0-9.7c0-.36.07-.46.44-.46,1.77,0,3.53,0,5.3,0,.32,0,.41.1.4.41C251.54,246.28,251.55,247,251.55,247.74Z" transform="translate(-226 -226)"/>
  <path id="i" class="cls-2" d="M242.05,254.44c0,2.91,0,5.83,0,8.74,0,.36-.07.49-.47.49-1.75,0-3.5,0-5.25,0-.33,0-.44-.08-.44-.42q0-8.81,0-17.62c0-.31.08-.41.4-.41,1.78,0,3.56,0,5.35,0,.35,0,.41.13.41.44Q242,250,242.05,254.44Z" transform="translate(-226 -226)"/>
  <path id="dot" class="cls-2" d="M239,236.34a3.19,3.19,0,0,1,3.32,4,3.42,3.42,0,0,1-4.1,2.28,3.16,3.16,0,0,1-2.48-4.35A3.29,3.29,0,0,1,239,236.34Z" transform="translate(-226 -226)"/>
</svg>
