<?xml version="1.0" encoding="utf-8"?>
<!-- Generator: Adobe Illustrator 24.3.0, SVG Export Plug-In . SVG Version: 6.00 Build 0)  -->
<svg version="1.1" id="logo_x5F_small" xmlns="http://www.w3.org/2000/svg" xmlns:xlink="http://www.w3.org/1999/xlink" x="0px"
	 y="0px" viewBox="0 0 595.3 841.9" style="enable-background:new 0 0 595.3 841.9;" xml:space="preserve">
<style type="text/css">
	.st0{fill:#010101;}
</style>
<g id="left_x5F_bracket_7_">
	<path class="st0" d="M286,413.6c1.3,0,2.7,0.1,4,0.1c1.3,0,2.6-0.1,3.9-0.4l0.5-0.1l0,0.5c0.1,2.5,0.1,5,0.1,7.4c0,2.5,0,5-0.1,7.4
		l0,0.5l-0.4-0.1c-1.3-0.3-2.6-0.4-3.9-0.5c-1.3-0.1-2.6,0-4,0.1c1.3-0.3,2.6-0.5,4-0.6c1.3,0,2.7,0,4,0.2l-0.5,0.4
		c-0.1-2.5-0.1-5-0.1-7.4c0-2.5,0-5,0.1-7.4l0.5,0.4c-1.4,0.3-2.7,0.2-4.1,0.2C288.7,414,287.4,413.9,286,413.6z"/>
</g>
<g id="right_x5F_bracket_7_">
	<path class="st0" d="M309.8,413.6c-2.5,0.6-5.2,0.8-7.8,0.4l0.5-0.4c0.1,2.5,0.1,5,0.1,7.4c0,2.5,0,5-0.1,7.4l-0.5-0.4
		c1.4-0.2,2.7-0.2,4.1-0.1c1.3,0.1,2.7,0.3,4,0.5c-1.3,0-2.7-0.1-4,0c-1.3,0-2.6,0.1-3.9,0.4l-0.5,0.1l0-0.5c-0.1-2.5-0.1-5-0.1-7.4
		c0-2.5,0-5,0.1-7.4l0-0.5l0.4,0.1c1.2,0.3,2.5,0.4,3.8,0.4C307.2,413.7,308.5,413.7,309.8,413.6z"/>
</g>
<g id="middle_x5F_angle_7_">
	<path class="st0" d="M294.4,428.9c0.5-2,1.1-4,1.7-6.1c0.5-2,1.2-4,1.5-6l0.7-4.1l0.3,4.1c0.1,1,0.3,2,0.5,3c0.2,1,0.5,2,0.8,3
		c0.3,1,0.6,2,0.9,3c0.3,1,0.6,2,0.9,3c-0.9-1.9-1.8-3.8-2.5-5.8c-0.4-1-0.7-2-1-3c-0.3-1-0.5-2.1-0.6-3.2l1,0
		c-0.2,1.1-0.5,2.1-0.7,3.1c-0.3,1-0.6,2-1,3C296,425,295.2,427,294.4,428.9z"/>
</g>
<g id="crossbar_7_">
	<path class="st0" d="M282.9,422.2c5-0.5,10-0.9,15.1-0.8c2.5,0,5,0,7.6,0.3c2.5,0.3,5,0.7,7.4,1.5l0,0.1c-2.5-0.2-5-0.5-7.5-0.6
		c-2.5-0.2-5-0.4-7.5-0.5C292.9,422,287.9,422,282.9,422.2L282.9,422.2z"/>
</g>
</svg>
