<svg id="logo" xmlns="http://www.w3.org/2000/svg" viewBox="0 0 97.04 51.66">
  <g id="left_bracket">
    <path d="M11.85,3.89q3.22.14,6.45.21c2.15.05,4.29.08,6.43,0S29,4,31.09,3.77a41,41,0,0,0,6.19-1l1.4-.36,0,1.53c.13,4,.15,8,.23,12l.08,12-.07,12c-.08,4-.11,8-.23,12l-.05,1.43-1.34-.25a88,88,0,0,0-12.66-1.47c-2.13-.11-4.26-.12-6.41-.07s-4.28.18-6.43.36a62,62,0,0,1,6.36-1.21c2.15-.3,4.31-.49,6.48-.6a72.93,72.93,0,0,1,13,.63l-1.39,1.18c-.12-4-.15-8-.23-12l-.07-12,.08-12c.08-4,.1-8,.23-12L37.8,5.06a51.19,51.19,0,0,1-13.11.57c-2.17-.16-4.32-.38-6.46-.68S14,4.3,11.85,3.89Z" transform="translate(-1.7 -1.75)"/>
  </g>
  <g id="right_bracket">
    <path d="M88.53,3.89c-2.06.45-4.13.83-6.22,1.12s-4.19.5-6.31.64a57.43,57.43,0,0,1-12.75-.6l1.4-1.15c.14,4,.16,8,.24,12l.08,12-.07,12c-.08,4-.11,8-.23,12l-1.43-1.18a57.53,57.53,0,0,1,13.09-.46c2.16.16,4.31.37,6.45.65s4.26.61,6.39,1l-6.46-.13c-2.14,0-4.28,0-6.42,0s-4.26.15-6.36.36a47.75,47.75,0,0,0-6.23.94l-1.38.31,0-1.49c-.12-4-.15-8-.23-12l-.06-12,.08-12c.08-4,.1-8,.24-12l0-1.46,1.36.3A65.27,65.27,0,0,0,76,4.16c2.08.08,4.17.06,6.26,0S86.43,4,88.53,3.89Z" transform="translate(-1.7 -1.75)"/>
  </g>
  <g id="middle_angle">
    <path d="M38.69,53.34c.8-3.29,1.73-6.55,2.63-9.81l2.82-9.72c.91-3.25,1.88-6.46,2.71-9.71s1.66-6.48,2.18-9.72l2-12.63,1,12.77a57.4,57.4,0,0,0,1.76,9.7c.79,3.25,1.78,6.46,2.71,9.7l3,9.7c1,3.24,2,6.48,2.88,9.76-1.52-3.05-2.9-6.14-4.26-9.26s-2.63-6.26-3.81-9.45S52,28.24,51,25a57,57,0,0,1-2-10.23l3,.14a91.68,91.68,0,0,1-2.42,10c-1,3.26-2,6.49-3.22,9.67S44,40.87,42.71,44,40.12,50.26,38.69,53.34Z" transform="translate(-1.7 -1.75)"/>
  </g>
  <g id="crossbar">
    <path d="M1.7,31.68c8.08-.83,16.17-1.51,24.28-2S42.23,29,50.36,29a214,214,0,0,1,24.41,1.07,140.47,140.47,0,0,1,24,4.76l0,.29c-8.12-.73-16.15-1.5-24.2-2.06S58.4,31.74,50.31,31.44,34.13,31.06,26,31.19s-16.2.36-24.3.79Z" transform="translate(-1.7 -1.75)"/>
  </g>
</svg>
