<svg id="logo_white" xmlns="http://www.w3.org/2000/svg" viewBox="0 0 97.04 51.66">
  <defs>
    <style>
      .cls-1 {
        fill: #fff;
      }
    </style>
  </defs>
  <g id="left_bracket">
    <path class="cls-1" d="M259.55,397.16q3.22.13,6.45.21c2.15.05,4.29.08,6.42,0s4.27-.13,6.37-.35a43.32,43.32,0,0,0,6.18-1l1.41-.36.05,1.52c.13,4,.15,8,.23,12l.08,12-.07,12c-.08,4-.11,8-.24,12l0,1.43-1.34-.25a88,88,0,0,0-12.66-1.47c-2.13-.11-4.27-.12-6.41-.07s-4.28.18-6.43.36a62,62,0,0,1,6.36-1.21c2.15-.3,4.31-.49,6.48-.6a72.93,72.93,0,0,1,13,.63L284,445.19c-.12-4-.15-8-.23-12l-.07-12,.08-12c.08-4,.1-8,.23-12l1.45,1.17a51.19,51.19,0,0,1-13.11.57c-2.17-.16-4.32-.38-6.46-.68S261.66,397.57,259.55,397.16Z" transform="translate(-249.4 -395.02)"/>
  </g>
  <g id="right_bracket">
    <path class="cls-1" d="M336.22,397.16c-2.05.45-4.12.83-6.21,1.12s-4.19.5-6.31.64a57.43,57.43,0,0,1-12.75-.6l1.4-1.16c.13,4,.16,8,.24,12l.08,12-.07,12c-.08,4-.11,8-.23,12L310.94,444a57.44,57.44,0,0,1,13.08-.46c2.17.16,4.32.37,6.46.65s4.26.61,6.38,1l-6.45-.13c-2.14,0-4.28-.05-6.42,0s-4.26.14-6.36.36a47.49,47.49,0,0,0-6.23.94l-1.38.31,0-1.49c-.12-4-.15-8-.23-12l-.07-12,.08-12c.09-4,.11-8,.24-12l.05-1.45,1.36.3a66.11,66.11,0,0,0,12.28,1.42c2.08.08,4.17.06,6.26,0S334.12,397.29,336.22,397.16Z" transform="translate(-249.4 -395.02)"/>
  </g>
  <g id="middle_angle">
    <path class="cls-1" d="M286.39,446.61c.8-3.3,1.73-6.55,2.63-9.81l2.82-9.72c.91-3.25,1.88-6.47,2.7-9.71s1.67-6.48,2.19-9.72l2-12.63.95,12.77a57.59,57.59,0,0,0,1.76,9.7c.79,3.25,1.77,6.46,2.71,9.7l3,9.7c1,3.24,2,6.48,2.88,9.76-1.52-3-2.9-6.15-4.26-9.26s-2.63-6.26-3.81-9.45-2.26-6.43-3.23-9.72a56.3,56.3,0,0,1-2-10.23l3,.14a91.65,91.65,0,0,1-2.41,10c-1,3.26-2,6.49-3.22,9.67s-2.38,6.34-3.64,9.48S287.82,443.53,286.39,446.61Z" transform="translate(-249.4 -395.02)"/>
  </g>
  <g id="crossbar">
    <path class="cls-1" d="M249.4,425c8.08-.83,16.17-1.51,24.28-2s16.25-.67,24.38-.65a209.46,209.46,0,0,1,24.41,1.07,140.47,140.47,0,0,1,24,4.76l-.05.29c-8.12-.73-16.15-1.5-24.2-2.06S306.1,425,298,424.71s-16.18-.38-24.28-.25-16.2.36-24.3.79Z" transform="translate(-249.4 -395.02)"/>
  </g>
</svg>
