<svg id="menu" xmlns="http://www.w3.org/2000/svg" viewBox="0 0 100 14.17">
  <defs>
    <style>
      .cls-1 {
        fill: #fff;
      }

      .cls-2 {
        fill: #231f20;
      }
    </style>
  </defs>
  <g id="line_upper">
    <line class="cls-1" y1="2.09" x2="100" y2="2.09"/>
    <path class="cls-2" d="M4.89,10.85c8.34-.32,16.67-.53,25-.8l25-.6c8.34-.18,16.67-.7,25-.4,4.17.14,8.34.3,12.5.59s8.34.63,12.5,1.21v.4c-4.16.57-8.33.93-12.5,1.2s-8.33.46-12.5.6c-8.33.29-16.66-.23-25-.4l-25-.6c-8.33-.27-16.66-.48-25-.8Z" transform="translate(-4.89 -8.96)"/>
  </g>
  <g id="line_down">
    <line class="cls-1" y1="12.08" x2="100" y2="12.08"/>
    <path class="cls-2" d="M4.89,20.84c8.34-.32,16.67-.53,25-.8l25-.6c8.34-.17,16.67-.69,25-.4,4.17.14,8.34.3,12.5.59s8.34.64,12.5,1.21v.4c-4.16.57-8.33.93-12.5,1.21s-8.33.45-12.5.59c-8.33.29-16.66-.23-25-.4l-25-.6c-8.33-.27-16.66-.48-25-.8Z" transform="translate(-4.89 -8.96)"/>
  </g>
</svg>
