<svg id="menu" xmlns="http://www.w3.org/2000/svg" viewBox="0 0 50 8.13">
  <defs>
    <style>
      .cls-1 {
        fill: #fff;
      }
    </style>
  </defs>
  <g id="line_upper">
    <path class="cls-1" d="M29.89,13.4c4.17-.24,8.34-.4,12.5-.6l12.5-.45c4.17-.13,8.34-.52,12.5-.3a84.1,84.1,0,0,1,12.5,1.35v.3a86.84,86.84,0,0,1-12.5,1.35c-4.16.22-8.33-.17-12.5-.3l-12.5-.45c-4.16-.21-8.33-.36-12.5-.6Z" transform="translate(-29.89 -11.98)"/>
  </g>
  <g id="line_down">
    <path class="cls-1" d="M29.89,18.39c4.17-.24,8.34-.4,12.5-.6l12.5-.45c4.17-.13,8.34-.52,12.5-.3a84.1,84.1,0,0,1,12.5,1.35v.3A84.1,84.1,0,0,1,67.39,20c-4.16.22-8.33-.17-12.5-.3l-12.5-.45c-4.16-.2-8.33-.36-12.5-.6Z" transform="translate(-29.89 -11.98)"/>
  </g>
</svg>
