<svg id="shaman" xmlns="http://www.w3.org/2000/svg" viewBox="0 0 415.7 614.64">
  <defs>
    <style>
      .cls-1, .cls-2 {
        fill: #fff;
      }

      .cls-2 {
        stroke: #fff;
        stroke-miterlimit: 10;
      }
    </style>
  </defs>
  <g id="person">
    <path id="body" class="cls-1" d="M706.45,1057.34c49.4-37.78,67-87.94,30.27-159.25L724,905.79c32.35,76.57-10.82,141.47-51.82,114-4.31-8.19-6.4-16.36-5.43-24.5l-9.83,2.2c2.22,6.58-.73,12.95-6.75,19.19-48.46,32.19-79.56-75.8-27.69-118.58L615,888.73c-27.57,26.31-50.62,54.84-32,103.76,6.78,22.41,22.51,40.82,39.44,58.7,5.27,6.7,6.16,13.3,2,19.8-65.1,198.35-52.74,155.1-53.1,196.87,50.43,10.83,90.21,10.23,142.81.52-15.75-91.29-32.32-148.75-27.15-190.57C690.14,1066.67,696.78,1060,706.45,1057.34Zm-8.93,198.25c-38.38,8.68-75.23,9.58-110,0,11.37-70.68,28.79-133.95,54-187.69,10.8,4.13,21.94,2.76,30.21.18A1095.88,1095.88,0,0,0,697.52,1255.59Z" transform="translate(-466.36 -694.72)"/>
    <path id="head" class="cls-2" d="M669.8,943.27a81,81,0,0,0-13.72,12.5c-13.51,15.33-21.94,35.18-13.59,43.58,9.78,9.83,52.38-17.2,52.38-17.2C707.94,976.79,709.5,932.13,669.8,943.27Zm20.76,37.65c.17-15.27-2.61-24.07-11.17-32C696.63,945.92,699.26,957.71,690.56,980.92Z" transform="translate(-466.36 -694.72)"/>
    <g id="fold5">
      <path class="cls-1" d="M594.76,1246.73c7.85.44,15.63.9,23.39,1,3.87.12,7.74.13,11.59.07s7.68-.09,11.49-.27c1.9-.14,3.81-.23,5.7-.49s3.78-.48,5.65-.78a78.08,78.08,0,0,1,11.2-.84l5.64,0c1,0,1.9,0,2.86.09s1.91,0,2.87.09a110,110,0,0,1,12.05,1.07l.38,1.24a39.15,39.15,0,0,1-10.66,6.7c-.95.42-1.9.82-2.87,1.19s-1.95.66-2.93,1-2,.6-3,.85l-3,.67a44.69,44.69,0,0,1-12.15.78c-4-.28-8.06-.83-12-1.19s-8-.91-11.88-1.51-7.83-1.4-11.71-2.24c-7.73-1.74-15.36-3.75-22.85-6.21Z" transform="translate(-466.36 -694.72)"/>
    </g>
    <g id="fold1">
      <path class="cls-1" d="M642.88,1075.6c-2.36,7.41-4.71,14.79-6.7,22.26q-1.56,5.58-2.94,11.19t-2.65,11.22c-.83,3.76-1.44,7.55-2,11.34s-1.33,7.53-2.26,11.24-1.89,7.43-3,11.15c-.54,1.86-1.08,3.73-1.71,5.59s-1.21,3.75-2,5.62l-.8-.07c-.4-2-.62-4-.82-6s-.25-4-.26-6a96.86,96.86,0,0,1,.7-11.81,70.74,70.74,0,0,1,2.41-11.55c1.13-3.78,2.38-7.51,3.55-11.25s2.44-7.44,3.75-11.13,2.78-7.31,4.25-10.93c3-7.2,6.19-14.33,9.74-21.26Z" transform="translate(-466.36 -694.72)"/>
    </g>
    <g id="fold4">
      <path class="cls-1" d="M663.08,1076c.24,7.78.48,15.52,1.1,23.24q.39,5.77,1,11.54t1.28,11.47c.24,1.91.54,3.81.88,5.7s.7,3.78,1.07,5.66.7,3.76,1,5.65.54,3.78.73,5.69c.41,3.8.77,7.62,1,11.49.13,1.94.28,3.87.33,5.84s.17,3.94.07,6l-.77.21a57.61,57.61,0,0,1-2.84-5.3c-.83-1.82-1.62-3.65-2.31-5.5a94.53,94.53,0,0,1-3.4-11.37,68.89,68.89,0,0,1-1.69-11.7c-.22-3.94-.31-7.88-.47-11.8s-.22-7.85-.21-11.77.15-7.83.33-11.74c.45-7.81,1.06-15.59,2.1-23.32Z" transform="translate(-466.36 -694.72)"/>
    </g>
    <g id="fold2">
      <path class="cls-1" d="M650.71,1075.56c-1.12,7.23-2.24,14.42-3.15,21.62q-.72,5.4-1.31,10.79c-.42,3.59-.8,7.19-1.12,10.78s-.43,7.21-.52,10.8a91.59,91.59,0,0,1-1,10.72c-.53,3.55-1.14,7.1-1.9,10.67-.38,1.79-.76,3.58-1.24,5.38s-.93,3.61-1.61,5.43H638a48.18,48.18,0,0,1-1.6-5.49c-.4-1.84-.75-3.69-1-5.54a81.48,81.48,0,0,1-.73-11.13,59.24,59.24,0,0,1,1.07-11c.71-3.64,1.54-7.24,2.26-10.85s1.51-7.21,2.35-10.79,1.82-7.12,2.79-10.65c2-7.06,4.19-14.06,6.68-20.94Z" transform="translate(-466.36 -694.72)"/>
    </g>
    <g id="fold3">
      <path class="cls-1" d="M656.9,1076.8c-.15,7.32-.36,14.6-.4,21.88,0,3.63,0,7.26,0,10.89,0,1.81,0,3.62,0,5.42s.06,3.62.12,5.42l.11,2.71.19,2.69c.13,1.8.3,3.6.49,5.39s.29,3.57.35,5.35.08,3.58.06,5.36c-.07,3.58-.19,7.17-.41,10.79-.15,1.82-.21,3.63-.42,5.48s-.33,3.7-.7,5.61l-.89.17a49.34,49.34,0,0,1-4.31-10.53,73.38,73.38,0,0,1-2.25-11,52.07,52.07,0,0,1-.45-5.56c0-.93,0-1.86,0-2.79l.13-2.78c.12-1.86.28-3.71.45-5.55l.48-5.53c.13-1.84.29-3.67.48-5.5s.36-3.67.57-5.49c.44-3.66,1-7.3,1.49-10.92,1.14-7.26,2.42-14.47,4-21.63Z" transform="translate(-466.36 -694.72)"/>
    </g>
    <path id="circle_out" class="cls-2" d="M643.17,1170.6c-49.77,0-52.86,69.9,0,73.18C692.73,1240.94,692.73,1178.16,643.17,1170.6Zm-1.9,65.81c-39.58-2.14-34.26-49.31-3.63-57.42C684.32,1177.44,680.84,1236.41,641.27,1236.41Z" transform="translate(-466.36 -694.72)"/>
    <path id="sun" class="cls-2" d="M664.65,1209c-5.15-2.59-5-5.53,0-8.79-5.25-.94-8.21-3.51-5.49-10.07-5.65,2.36-8.24,1.36-6.19-4.71-4.47,5.4-7.64,5.73-8.61-2.58-4,8.57-7.13,7.94-9.7,1.72-.87,5.46-3,7.49-7,4.6,1.42,4.38-1.84,5.53-5.91,6.11,3.49,2.61,1.86,6.18-2.56,10.29,3.32.59,2.94,3.15,0,7.07,5.64.9,7.41,4.74,4.37,12.22,5-3.22,7.69-.19,9.6,4.93,3.68-6,7.92-4.13,12.46,1.93-1.38-4.87,9.1-7.79,10.7-6.42.72-2.84,3.45-9.69,7.09-7.3C658.63,1214.7,660,1211.76,664.65,1209Zm-23.37,14.59c-22-1.19-19-27.37-2-31.87C665.17,1190.9,663.24,1223.63,641.28,1223.63Z" transform="translate(-466.36 -694.72)"/>
    <path id="circle_inner" class="cls-2" d="M640.31,1194.58c21.31-.7,19.72,26.22,1.65,26.22C623.89,1219.82,626.32,1198.29,640.31,1194.58Z" transform="translate(-466.36 -694.72)"/>
    <path id="left_foot" class="cls-1" d="M571.21,1267.49c2.31,9.9,1,18.3-3.21,25.53-55,17.31-33,19.6,1.6,12.76,9.81-1,16-4.14,14.63-11.85q-6.35-11.4,3.63-22.79Z" transform="translate(-466.36 -694.72)"/>
    <path id="right_foot" class="cls-1" d="M714.17,1267.12c-2.31,9.91-1,18.3,3.21,25.53,55,17.32,33,19.6-1.61,12.77-9.8-1-16-4.15-14.62-11.85q6.33-11.4-3.63-22.79Z" transform="translate(-466.36 -694.72)"/>
    <g id="hair1">
      <path class="cls-1" d="M692.27,979.69a73.44,73.44,0,0,1,8,4.3q1.9,1.21,3.79,2.51c1.21.9,2.42,1.82,3.61,2.77s2.46,1.83,3.68,2.79a15.61,15.61,0,0,1,1.68,1.57,15.36,15.36,0,0,1,1.35,1.85,20.26,20.26,0,0,1,1.92,4.29,15,15,0,0,1,.67,5l-.66.46a19.62,19.62,0,0,1-4.51-2.07,26.19,26.19,0,0,1-3.57-2.6,13.69,13.69,0,0,1-2.75-3.22l-1.13-1.84c-.39-.61-.81-1.2-1.24-1.78-.87-1.13-1.77-2.26-2.69-3.37s-1.82-2.26-2.76-3.37c-1.87-2.25-3.84-4.44-5.82-6.68Z" transform="translate(-466.36 -694.72)"/>
    </g>
    <g id="hair2">
      <path class="cls-1" d="M687.57,986.51a99.5,99.5,0,0,1,6.62,7.85q1.54,2.07,3,4.18t2.79,4.35c.89,1.47,1.92,2.89,2.86,4.36a16.31,16.31,0,0,1,2,4.76,25.18,25.18,0,0,1,.75,5.24,18.45,18.45,0,0,1-.66,5.61l-.76.25a23,23,0,0,1-3.9-3.94,32.54,32.54,0,0,1-2.85-4.18,18.5,18.5,0,0,1-1.87-4.53c-.42-1.6-.81-3.24-1.37-4.79s-1.14-3.11-1.75-4.66-1.17-3.12-1.79-4.68c-1.21-3.13-2.53-6.23-3.82-9.39Z" transform="translate(-466.36 -694.72)"/>
    </g>
    <g id="hair3">
      <path class="cls-1" d="M690.43,982.25a85.51,85.51,0,0,1,7.11,5.33q1.69,1.44,3.36,2.94t3.18,3.12c1,1.08,2.2,2.06,3.28,3.12a12.32,12.32,0,0,1,2.59,3.65,19.46,19.46,0,0,1,1.43,4.39,15,15,0,0,1,.16,5l-.7.39a19.21,19.21,0,0,1-4.27-2.44,25,25,0,0,1-3.27-2.91,13.12,13.12,0,0,1-2.36-3.48c-.62-1.28-1.19-2.61-1.92-3.83s-1.47-2.45-2.23-3.66-1.49-2.46-2.26-3.68c-1.51-2.48-3.11-4.91-4.67-7.41Z" transform="translate(-466.36 -694.72)"/>
    </g>
    <g id="hair4">
      <path class="cls-1" d="M688.91,985c7.74,10.47,14.38,21,18.48,31.43" transform="translate(-466.36 -694.72)"/>
      <path class="cls-1" d="M689.23,984.76c2.32,2.08,4.49,4.29,6.63,6.56q1.57,1.73,3.11,3.49t2.93,3.66c.94,1.25,2,2.43,3,3.67a13.53,13.53,0,0,1,2.27,4.15,20.24,20.24,0,0,1,1,4.76,15,15,0,0,1-.41,5.23l-.75.3a21.37,21.37,0,0,1-4-3.19,28.13,28.13,0,0,1-3-3.47,14.89,14.89,0,0,1-2-3.91c-.5-1.41-1-2.86-1.59-4.22s-1.26-2.73-1.92-4.09-1.28-2.76-1.94-4.13c-1.3-2.77-2.67-5.51-4-8.34Z" transform="translate(-466.36 -694.72)"/>
    </g>
  </g>
  <g id="tambourine">
    <g id="inner_path">
      <path class="cls-1" d="M672.48,777.76a120.78,120.78,0,0,1,21.62,3.52,78.6,78.6,0,0,1,20.44,8.49A52.31,52.31,0,0,1,731,805.12a45.84,45.84,0,0,1,7.73,21.54,52.31,52.31,0,0,1-3.08,22.82,60.26,60.26,0,0,1-11.94,19.78A57.62,57.62,0,0,1,705,883.12a56.46,56.46,0,0,1-22.94,5.24h-.19l-.3,0a102.29,102.29,0,0,1-19.48-3.64,60.15,60.15,0,0,1-18.47-8.88A41.91,41.91,0,0,1,630,859.36a42.64,42.64,0,0,1-3.49-21.11,56.31,56.31,0,0,1,5.66-20.1,64,64,0,0,1,12-16.82,57.77,57.77,0,0,1,17.1-12.05,45.33,45.33,0,0,1,21.13-4.1l.5,0,.43.1a83.62,83.62,0,0,1,16.5,5.54,57.71,57.71,0,0,1,14.82,10,45.76,45.76,0,0,1,10.66,15,38.23,38.23,0,0,1,3,18.64,34.29,34.29,0,0,1-7,17.75,33.12,33.12,0,0,1-3.17,3.62,16.8,16.8,0,0,1-1.76,1.61L714.52,859c-1.3.9-2.58,1.82-3.92,2.63l-2.06,1.11a20.25,20.25,0,0,1-2.09,1A51.29,51.29,0,0,1,688.93,868a80.66,80.66,0,0,1-17.35-1l-.53-.08-.42-.16a51.55,51.55,0,0,1-11.61-6,35.17,35.17,0,0,1-9.47-9.74,30.3,30.3,0,0,1-4.65-13.1,31,31,0,0,1,1.62-13.75,31.67,31.67,0,0,1,18.84-18.84,34.87,34.87,0,0,1,13.15-2.07,45.52,45.52,0,0,1,12.69,2.35l.31.1.15.08,2.74,1.41a25.56,25.56,0,0,1,2.69,1.51l2.65,1.65,2.53,1.91a30.61,30.61,0,0,1,8.48,10,20.28,20.28,0,0,1,1.75,13.76,22.39,22.39,0,0,1-7.11,11.5,26.83,26.83,0,0,1-24.5,5.55,28.7,28.7,0,0,1-11.12-5.94,42.86,42.86,0,0,1-7.93-9.29l-.39-.6v-.6a33.21,33.21,0,0,1,.52-6.81,22.6,22.6,0,0,1,2.4-6.54A17.55,17.55,0,0,1,669,818a15.24,15.24,0,0,1,6.47-2.84,15,15,0,0,1,12.95,3.72,19.05,19.05,0,0,1,5.75,11.75l0,.12v0a10.85,10.85,0,0,1-1.73,5.05,6.34,6.34,0,0,1-4.46,2.81,10.54,10.54,0,0,1-5.06-.72,26.58,26.58,0,0,1-4.49-2.26,26.53,26.53,0,0,0,4.63,1.83,10.09,10.09,0,0,0,4.77.32,5.34,5.34,0,0,0,3.56-2.65,9.56,9.56,0,0,0,1.14-4.42v.15a21,21,0,0,0-2.06-5.63,14.75,14.75,0,0,0-3.71-4.46,12.54,12.54,0,0,0-5.08-2.44,12.24,12.24,0,0,0-5.52.1,12.63,12.63,0,0,0-8.13,6.84,17.94,17.94,0,0,0-1.61,5.35,29.11,29.11,0,0,0-.12,5.76l-.4-1.21a37.89,37.89,0,0,0,7.31,7.68,23.61,23.61,0,0,0,9.16,4.3,20.23,20.23,0,0,0,18.23-4.89,15,15,0,0,0,4.44-7.83,12.4,12.4,0,0,0-1.51-8.42,23.11,23.11,0,0,0-6.47-7L695,817.52l-2.26-1.3a20.51,20.51,0,0,0-2.33-1.21L688,813.86l.47.19a36.59,36.59,0,0,0-10.1-1.55,25.12,25.12,0,0,0-9.56,1.8,22.12,22.12,0,0,0-12.61,13.26,20.07,20.07,0,0,0,2.32,17.6,24.28,24.28,0,0,0,6.76,6.63,40.8,40.8,0,0,0,9,4.42l-1-.24a69.33,69.33,0,0,0,14.7.59,40.17,40.17,0,0,0,13.56-3.37c8.33-3.67,14.07-11.28,14.81-19.87a26.24,26.24,0,0,0-2.1-12.77,34,34,0,0,0-7.92-11,46.47,46.47,0,0,0-11.73-7.93,72.31,72.31,0,0,0-13.91-4.71l.93.13a34.1,34.1,0,0,0-15.63,3,45.7,45.7,0,0,0-13.69,9.49c-8,8-13.77,18.67-14.88,29.66A31.71,31.71,0,0,0,639.77,855a31.36,31.36,0,0,0,10,12.52A43.79,43.79,0,0,0,657,872a58.93,58.93,0,0,0,8,3.33,93,93,0,0,0,17.51,3.83l-.5,0a47.45,47.45,0,0,0,19.46-3.81A52.38,52.38,0,0,0,718.08,864,53,53,0,0,0,729.33,847a47.23,47.23,0,0,0,3.64-20,40.85,40.85,0,0,0-5.81-19.49,50.29,50.29,0,0,0-14.4-15.07A76.53,76.53,0,0,0,693.58,783,128.32,128.32,0,0,0,672.48,777.76Z" transform="translate(-466.36 -694.72)"/>
    </g>
    <path id="around_path" class="cls-2" d="M665.56,756.35c-96.15,12.91-96.15,158.19,10,157.44C795.53,927.63,800.91,735.72,665.56,756.35Zm-58,102.48a3,3,0,1,1,2.93-3A2.94,2.94,0,0,1,607.51,858.83Zm0-35.82a5.93,5.93,0,1,1,5.85-5.93A5.89,5.89,0,0,1,607.51,823ZM743,783.69a5.93,5.93,0,1,1-5.85,5.93A5.89,5.89,0,0,1,743,783.69Zm-75.5-22.78a3,3,0,1,1-2.92,3A2.94,2.94,0,0,1,667.47,760.91ZM628,777.76a5.93,5.93,0,1,1-5.85,5.93A5.89,5.89,0,0,1,628,777.76Zm4.62,123.81a5.93,5.93,0,1,1,5.84-5.93A5.88,5.88,0,0,1,632.62,901.57Zm42,8.89a3,3,0,1,1,2.92-3A2.94,2.94,0,0,1,674.63,910.46Zm48.22-8.89a3,3,0,1,1,2.92-3A2.94,2.94,0,0,1,722.85,901.57Zm-41.69-.6c-91.37-5-79.07-113.84-8.38-132.57A101.07,101.07,0,0,1,704.44,772a5.82,5.82,0,1,1,2.85.76l-.48,0C777.38,795.74,761.48,901,681.16,901ZM746,883.73a5.93,5.93,0,1,1,5.84-5.92A5.88,5.88,0,0,1,746,883.73Zm12.12-46.89a4.06,4.06,0,1,1,4-4.06A4,4,0,0,1,758.15,836.84Z" transform="translate(-466.36 -694.72)"/>
  </g>
  <g id="skills">
    <g id="npm">
      <path class="cls-1" d="M499.09,881.22c0-.14,0-.32-.07-.56s-.08-.54-.14-.92c-.1-.61-.22-1.25-.36-1.93s-.3-1.37-.46-2.1-.31-1.48-.47-2.25-.3-1.57-.43-2.39c-.05-.31-.09-.67-.13-1.07a6.89,6.89,0,0,1,0-1.11,2.84,2.84,0,0,1,.21-.91.75.75,0,0,1,.57-.45.87.87,0,0,1,.7.16,1.76,1.76,0,0,1,.46.62,4.24,4.24,0,0,1,.28.91c.07.35.13.69.19,1a5.58,5.58,0,0,1,1-1.44,8.52,8.52,0,0,1,1.41-1.2,9.09,9.09,0,0,1,1.58-.87,6,6,0,0,1,1.54-.47,6.37,6.37,0,0,1,2.39,0,5.4,5.4,0,0,1,1.91.77,5.86,5.86,0,0,1,1.48,1.33,9.23,9.23,0,0,1,1.08,1.72,12.34,12.34,0,0,1,.75,1.92A16.72,16.72,0,0,1,513,874l.37,2.3a12.61,12.61,0,0,1,.15,1.71,7,7,0,0,1-.1,1.5,3.16,3.16,0,0,1-.37,1.1,1,1,0,0,1-.66.5,3.6,3.6,0,0,1-.56,0,.9.9,0,0,1-.48-.12,1,1,0,0,1-.38-.43,2.76,2.76,0,0,1-.25-.87,5.81,5.81,0,0,1-.07-1.12c0-.39,0-.79,0-1.19s0-.8.05-1.2a6.46,6.46,0,0,0-.07-1.17c-.07-.42-.15-.84-.24-1.25a10,10,0,0,0-.34-1.22,8.76,8.76,0,0,0-.49-1.13,5,5,0,0,0-.71-1c-.23-.26-.46-.51-.7-.76a3.61,3.61,0,0,0-.82-.62,3.46,3.46,0,0,0-1.07-.36,4.6,4.6,0,0,0-1.47,0,4.38,4.38,0,0,0-1.28.45,7.21,7.21,0,0,0-1.38.92,8.1,8.1,0,0,0-1.27,1.28,6.61,6.61,0,0,0-.92,1.55l.56,3.46c0,.11.05.26.09.45s.1.38.16.6.13.45.21.7l.25.72c.13.37.28.71.43,1a3.45,3.45,0,0,1,.3.93,4.43,4.43,0,0,1,.07.6,1.43,1.43,0,0,1-.06.52.88.88,0,0,1-.31.39,1.68,1.68,0,0,1-.65.23,3.81,3.81,0,0,1-.59,0,1.43,1.43,0,0,1-.58-.12,1.25,1.25,0,0,1-.49-.41A2,2,0,0,1,499.09,881.22Z" transform="translate(-466.36 -694.72)"/>
      <path class="cls-1" d="M516.68,867.61a4.09,4.09,0,0,1,.88-1.51,6.88,6.88,0,0,1,1.36-1.11,8.1,8.1,0,0,1,1.58-.74,11,11,0,0,1,1.52-.39,13.62,13.62,0,0,1,3.84-.11,8.71,8.71,0,0,1,3,.91,5.82,5.82,0,0,1,2,1.74,5.5,5.5,0,0,1,1,2.37,10.14,10.14,0,0,1,0,3.65,7.1,7.1,0,0,1-1.25,2.9,7.22,7.22,0,0,1-2.4,2.06,10.57,10.57,0,0,1-3.43,1.13,16.23,16.23,0,0,1-2.07.2,9,9,0,0,1-1.66-.15l.17,1.06a10.08,10.08,0,0,0,.27,1.28c.12.44.24.87.37,1.29s.25.85.38,1.27a9.85,9.85,0,0,1,.27,1.21.84.84,0,0,1-.06.5,1.08,1.08,0,0,1-.29.39,1.57,1.57,0,0,1-.43.27,1.54,1.54,0,0,1-.49.15,1.62,1.62,0,0,1-.58,0,1.13,1.13,0,0,1-.51-.19,1.3,1.3,0,0,1-.4-.46,2.86,2.86,0,0,1-.25-.78l-.11-.72q-.06-.42-.15-.87l-.15-.89c-.06-.3-.1-.56-.14-.78l-.55-3.29Zm4,8.62c0,.15.11.24.33.29a3.26,3.26,0,0,0,.74.07,5.93,5.93,0,0,0,.84-.06c.28,0,.5-.06.64-.09a11.6,11.6,0,0,0,2.65-.73,6.69,6.69,0,0,0,2.1-1.34,4.9,4.9,0,0,0,1.27-2,5.85,5.85,0,0,0,.15-2.74,4.23,4.23,0,0,0-.75-1.88,4,4,0,0,0-1.46-1.22,5.73,5.73,0,0,0-2.09-.53,11.11,11.11,0,0,0-2.65.13,4.45,4.45,0,0,0-.94.27,5.61,5.61,0,0,0-1,.52,3.81,3.81,0,0,0-.82.71,1.37,1.37,0,0,0-.35.86l.58,3.81c0,.09,0,.22.07.38s.07.34.11.54.08.42.13.64.09.45.13.67Z" transform="translate(-466.36 -694.72)"/>
      <path class="cls-1" d="M537.32,874.49l-.45-2.33c-.2-1-.42-2.27-.66-3.73l-.28-1.76c-.08-.5-.14-1-.2-1.36s-.09-.79-.12-1.14-.06-.71-.07-1.09a1.2,1.2,0,0,1,.23-.76.9.9,0,0,1,.59-.4,2.1,2.1,0,0,1,.36,0,1.23,1.23,0,0,1,.38.08,1.08,1.08,0,0,1,.34.23,1.34,1.34,0,0,1,.27.4c.13-.15.3-.32.5-.51a5.77,5.77,0,0,1,1.72-1.06,5.71,5.71,0,0,1,1.25-.34,5.28,5.28,0,0,1,1.49,0,6.17,6.17,0,0,1,1.54.41,5.87,5.87,0,0,1,1.44.85,5.32,5.32,0,0,1,1.17,1.28,5,5,0,0,1,.85-1.35,6.75,6.75,0,0,1,1.22-1.1,7.52,7.52,0,0,1,1.47-.81,7.72,7.72,0,0,1,4.52-.38,5.72,5.72,0,0,1,2.45,1.25,7.72,7.72,0,0,1,1.85,2.56,15.17,15.17,0,0,1,1.14,4c0,.37.1.73.14,1.09s.07.72.1,1.12.07.81.1,1.27.07,1,.13,1.53a.83.83,0,0,1,0,.32,1.43,1.43,0,0,1-.17.41,1.57,1.57,0,0,1-.31.38.93.93,0,0,1-.46.21,1.49,1.49,0,0,1-.73-.06,2.3,2.3,0,0,1-.62-.33,2,2,0,0,1-.45-.48,1.35,1.35,0,0,1-.21-.51,3.42,3.42,0,0,1,0-.94c0-.26.07-.53.12-.8s.08-.57.11-.89a5.84,5.84,0,0,0-.09-1.24c-.07-.43-.14-.85-.22-1.25s-.15-.82-.22-1.25a4.91,4.91,0,0,0-.57-1.57,5.37,5.37,0,0,0-1.13-1.43,5.17,5.17,0,0,0-1.6-1,3.79,3.79,0,0,0-2-.17,5.41,5.41,0,0,0-2.36,1.06,4.63,4.63,0,0,0-1,1.06,3.08,3.08,0,0,0-.48,1.4l.93,5.83.06.27c0,.14.07.29.11.44s.07.29.1.43,0,.22.06.26a2.33,2.33,0,0,1,0,.59,1.45,1.45,0,0,1-.17.52,1.16,1.16,0,0,1-.33.4,1,1,0,0,1-.48.21,4.23,4.23,0,0,1-.63.05,1.56,1.56,0,0,1-.62-.12,1.26,1.26,0,0,1-.51-.35,1.41,1.41,0,0,1-.28-.68s0-.16,0-.33,0-.34,0-.52,0-.35,0-.51a1.5,1.5,0,0,0,0-.27l-.73-4.54a4.89,4.89,0,0,0-.49-1.47,5.33,5.33,0,0,0-1-1.34,4.09,4.09,0,0,0-1.3-.93,2.68,2.68,0,0,0-1.56-.2,6.23,6.23,0,0,0-1.69.48,2.21,2.21,0,0,0-1.36,2,8,8,0,0,0,.1,1.62c.11.66.23,1.33.36,2a19.42,19.42,0,0,0,.44,1.92l1,3.34a1,1,0,0,1-.08.58,1.7,1.7,0,0,1-.32.47,2.34,2.34,0,0,1-.4.32,1,1,0,0,1-.35.14,1.6,1.6,0,0,1-1.23-.18A2.24,2.24,0,0,1,537.32,874.49Z" transform="translate(-466.36 -694.72)"/>
    </g>
    <g id="gulp">
      <path class="cls-1" d="M777.7,785.86a11.55,11.55,0,0,1-.18-2,9.42,9.42,0,0,1,.2-2,8.33,8.33,0,0,1,.63-1.84,6,6,0,0,1,1.08-1.56,6,6,0,0,1,1.56-1.19,6.74,6.74,0,0,1,2.07-.71,7.79,7.79,0,0,1,2.38-.1,7,7,0,0,1,2,.55,5.81,5.81,0,0,1,1.52,1,6,6,0,0,1,1.08,1.31c.14.25.26.44.33.58a.62.62,0,0,0,.21.25,2.43,2.43,0,0,1,.82.56,1.41,1.41,0,0,1,.38.69l.87,4.83c.06.52.14,1.14.23,1.87s.18,1.62.27,2.67c0,.57.09,1.13.13,1.7a13.2,13.2,0,0,1,0,1.66,6.71,6.71,0,0,1-.23,1.52,3.77,3.77,0,0,1-.6,1.3,3.67,3.67,0,0,1-1.1,1,5.14,5.14,0,0,1-1.74.61l-.71.1c-.31,0-.66,0-1,0a11.57,11.57,0,0,1-1.17,0,6.28,6.28,0,0,1-1.11-.18,2.53,2.53,0,0,1-.86-.39,1.07,1.07,0,0,1-.43-.67,2.91,2.91,0,0,1,0-.49,1,1,0,0,1,.09-.43.78.78,0,0,1,.3-.33,1.55,1.55,0,0,1,.59-.22,1.13,1.13,0,0,1,.59.08,3.28,3.28,0,0,0,.67.21,3.42,3.42,0,0,0,.81.06c.3,0,.59,0,.86-.06s.51-.06.72-.09l.41-.08a1.43,1.43,0,0,0,1-.58,3,3,0,0,0,.46-1.09,5.86,5.86,0,0,0,.11-1.35c0-.47-.06-.93-.11-1.35,0-.2,0-.43-.07-.7s0-.54-.07-.84,0-.59-.08-.9-.06-.58-.1-.84a6.26,6.26,0,0,1-1.7,2A6,6,0,0,1,786,791.5a9.46,9.46,0,0,1-3.06.12,5.87,5.87,0,0,1-2.42-.89,5.78,5.78,0,0,1-1.75-1.91A9.61,9.61,0,0,1,777.7,785.86Zm2.59-.45a6.1,6.1,0,0,0,.79,2.23,3.57,3.57,0,0,0,1.27,1.24,3.75,3.75,0,0,0,1.63.46,7.72,7.72,0,0,0,1.89-.13,3.82,3.82,0,0,0,1.84-.84,5,5,0,0,0,1.16-1.49,5.84,5.84,0,0,0,.58-1.77,7.33,7.33,0,0,0,.09-1.72,2,2,0,0,0-.16-.65,4,4,0,0,0-.29-.51c-.13-.18-.24-.36-.35-.54a1.78,1.78,0,0,1-.22-.58,2,2,0,0,0-.48-.9,3.86,3.86,0,0,0-1-.84,5.08,5.08,0,0,0-1.41-.57,3.68,3.68,0,0,0-1.62,0,4.93,4.93,0,0,0-2.21.92,4,4,0,0,0-1.23,1.56,5.41,5.41,0,0,0-.44,2A10.11,10.11,0,0,0,780.29,785.41Z" transform="translate(-466.36 -694.72)"/>
      <path class="cls-1" d="M796,781.29c-.05-.28-.1-.6-.14-.95s-.09-.72-.12-1.11-.06-.77-.09-1.17,0-.78,0-1.16,0-.72,0-1a8.34,8.34,0,0,1,.09-.84,1.29,1.29,0,0,1,.36-.68,1.44,1.44,0,0,1,.82-.4.94.94,0,0,1,.83.21,1.23,1.23,0,0,1,.44.78,3.15,3.15,0,0,1,0,.53c0,.3-.06.69-.08,1.18s0,1.06,0,1.72a15.8,15.8,0,0,0,.26,2.13q.07.43.24,1.08c.11.42.26.86.43,1.32a10.91,10.91,0,0,0,.64,1.34,5.08,5.08,0,0,0,.88,1.15,3.43,3.43,0,0,0,1.17.73,2.8,2.8,0,0,0,1.48.09,3.66,3.66,0,0,0,1.25-.45,4.93,4.93,0,0,0,1-.76,6,6,0,0,0,.75-.93c.21-.34.39-.67.55-1s.29-.63.4-.91.21-.52.3-.71c0-.53-.09-1-.13-1.4s-.1-.77-.14-1.11-.1-.64-.15-.94-.1-.59-.16-.9-.12-.64-.19-1-.14-.76-.23-1.22l-.29-1.6a.87.87,0,0,1,0-.49,1.08,1.08,0,0,1,.26-.37,1.28,1.28,0,0,1,.39-.24,2.41,2.41,0,0,1,.41-.13,1.39,1.39,0,0,1,.36,0,1.2,1.2,0,0,1,.37.1.85.85,0,0,1,.33.24.87.87,0,0,1,.18.4l2.32,12.77a1.24,1.24,0,0,1-.1,1,1.28,1.28,0,0,1-.78.39,3,3,0,0,1-.79.06.63.63,0,0,1-.45-.2,1.21,1.21,0,0,1-.26-.52c-.06-.23-.12-.53-.19-.9l-.17-.91a9.86,9.86,0,0,1-.56,1.35,5.17,5.17,0,0,1-.84,1.18,4.69,4.69,0,0,1-1.2.93,5.27,5.27,0,0,1-1.68.58,6.22,6.22,0,0,1-2.47,0,5.42,5.42,0,0,1-1.9-.8,5.78,5.78,0,0,1-1.41-1.38,10,10,0,0,1-1-1.69,10.71,10.71,0,0,1-.64-1.76C796.17,782.28,796.05,781.75,796,781.29Z" transform="translate(-466.36 -694.72)"/>
      <path class="cls-1" d="M815.73,783.22a3.94,3.94,0,0,1-.19-.66l-.13-.71c-.11-.6-.23-1.2-.36-1.78s-.27-1.16-.41-1.74-.28-1.16-.41-1.74-.24-1.19-.33-1.81l-1.18-7a3.37,3.37,0,0,1,0-1.49,1,1,0,0,1,.87-.73,1,1,0,0,1,.48,0,1.44,1.44,0,0,1,.41.21,1.34,1.34,0,0,1,.3.33,1.44,1.44,0,0,1,.15.37l1.81,9.87c.18,1,.38,2,.6,2.93a22.61,22.61,0,0,0,.87,2.92,1.39,1.39,0,0,0,.2.37.8.8,0,0,0,.25.21.9.9,0,0,0,.27.07l.26,0a.73.73,0,0,0,.32-.15.92.92,0,0,0,.17-.21l.14-.21a1.4,1.4,0,0,1,.16-.2.91.91,0,0,1,.24-.16,1.53,1.53,0,0,1,.36-.11.8.8,0,0,1,.44,0,.9.9,0,0,1,.34.2,1.31,1.31,0,0,1,.25.33,1.47,1.47,0,0,1,.14.4,1.31,1.31,0,0,1-.11.8,2.5,2.5,0,0,1-.52.7,3.08,3.08,0,0,1-.75.53,3.17,3.17,0,0,1-.81.29,3.66,3.66,0,0,1-2.36-.19A3,3,0,0,1,815.73,783.22Z" transform="translate(-466.36 -694.72)"/>
      <path class="cls-1" d="M823.16,772.24a4,4,0,0,1,.84-1.53,6.05,6.05,0,0,1,1.34-1.14,8.12,8.12,0,0,1,1.56-.78,9.68,9.68,0,0,1,1.51-.42,13.5,13.5,0,0,1,3.84-.2,8.74,8.74,0,0,1,3,.84,5.92,5.92,0,0,1,2,1.7,5.41,5.41,0,0,1,1,2.35,10.25,10.25,0,0,1,.07,3.65,7.15,7.15,0,0,1-1.18,2.92,7.41,7.41,0,0,1-2.35,2.12,10.73,10.73,0,0,1-3.41,1.2,14.07,14.07,0,0,1-2.06.25,9.13,9.13,0,0,1-1.67-.11l.19,1a10.27,10.27,0,0,0,.3,1.28c.13.43.26.86.4,1.28s.28.85.41,1.26a10.51,10.51,0,0,1,.3,1.2.84.84,0,0,1-.05.5,1.08,1.08,0,0,1-.28.4,1.54,1.54,0,0,1-.42.28,2.09,2.09,0,0,1-1.08.19,1.22,1.22,0,0,1-.51-.19,1.29,1.29,0,0,1-.41-.45,2.66,2.66,0,0,1-.26-.77l-.13-.71c0-.28-.11-.57-.17-.87s-.11-.6-.17-.89-.11-.56-.15-.78l-.63-3.28Zm4.13,8.52c0,.15.13.25.34.29a3.49,3.49,0,0,0,.75.05,6,6,0,0,0,.84-.08l.63-.1a11.75,11.75,0,0,0,2.64-.8,6.58,6.58,0,0,0,2.07-1.38,4.9,4.9,0,0,0,1.22-2,5.66,5.66,0,0,0,.08-2.74,4.18,4.18,0,0,0-.78-1.86,3.84,3.84,0,0,0-1.49-1.18,5.64,5.64,0,0,0-2.11-.49,10.73,10.73,0,0,0-2.64.19,5.4,5.4,0,0,0-.94.29,5,5,0,0,0-1,.54,3.82,3.82,0,0,0-.81.73,1.37,1.37,0,0,0-.33.87l.67,3.8c0,.09,0,.21.08.37s.07.34.12.54.09.42.14.64l.15.66Q827.1,779.86,827.29,780.76Z" transform="translate(-466.36 -694.72)"/>
    </g>
    <g id="vue">
      <path class="cls-1" d="M756.37,909.25c-.07,0-.11-.28-.14-.76s0-1.11,0-1.89.06-1.68.11-2.68.12-2,.2-3.13.17-2.15.27-3.22.21-2.07.32-3,.24-1.72.37-2.4a7.67,7.67,0,0,1,.39-1.47l.19-.41a1.6,1.6,0,0,1,.32-.45,1,1,0,0,1,.49-.27,1.05,1.05,0,0,1,.69.1,1.45,1.45,0,0,1,.36.23,1.94,1.94,0,0,1,.33.37,1.75,1.75,0,0,1,.21.46,1.25,1.25,0,0,1,0,.51q-.19.94-.36,2.1c-.12.76-.23,1.56-.34,2.37s-.22,1.64-.31,2.48-.19,1.63-.26,2.41-.14,1.49-.18,2.16S759,904,759,904.52c0,.06,0,.16-.07.32s-.07.31-.1.47a2.27,2.27,0,0,0,0,.43c0,.13,0,.2.07.22s.19,0,.35-.12.33-.27.52-.44l.57-.55a4.26,4.26,0,0,1,.49-.44c1-.72,2.09-1.47,3.14-2.25l3.14-2.32,3.14-2.3c1.05-.77,2.12-1.49,3.2-2.19a2.9,2.9,0,0,1,1-.44,1.68,1.68,0,0,1,1.08.17.53.53,0,0,1,.21.18,1.27,1.27,0,0,1,.18.35,1.3,1.3,0,0,1,.06.5,1.72,1.72,0,0,1-.16.62,1.39,1.39,0,0,1-.16.28,1.76,1.76,0,0,1-.24.3,2,2,0,0,1-.25.25,1.06,1.06,0,0,1-.19.16l-1.14.76-1.8,1.24-2.23,1.57L767.25,903l-2.44,1.76-2.23,1.61-1.79,1.32c-.51.37-.89.66-1.14.85a4.28,4.28,0,0,0-.53.47l-.38.38a1.52,1.52,0,0,1-.35.25.94.94,0,0,1-.43.08,2.71,2.71,0,0,1-.63-.13A8.9,8.9,0,0,1,756.37,909.25Z" transform="translate(-466.36 -694.72)"/>
      <path class="cls-1" d="M774.07,907.46l.45-1,.57-1.08c.21-.37.42-.74.65-1.12s.45-.74.68-1.09.45-.65.67-.94a6.71,6.71,0,0,1,.6-.71,1.48,1.48,0,0,1,1.73-.26,1.05,1.05,0,0,1,.64.71,1.4,1.4,0,0,1-.08,1,2.72,2.72,0,0,1-.35.46c-.22.25-.48.6-.8,1s-.66,1-1,1.59a17.81,17.81,0,0,0-1.07,2.1c-.14.3-.28.68-.44,1.13a12.07,12.07,0,0,0-.43,1.47,11.92,11.92,0,0,0-.24,1.62,5,5,0,0,0,.1,1.59,3.69,3.69,0,0,0,.61,1.39,3,3,0,0,0,1.29,1,4.19,4.19,0,0,0,1.42.36,5.11,5.11,0,0,0,1.36-.09,5.42,5.42,0,0,0,1.26-.39c.4-.18.77-.36,1.12-.56s.65-.4.92-.58l.71-.47c.29-.51.53-1,.74-1.36s.39-.76.55-1.09.32-.65.45-1,.27-.6.41-.92.29-.66.44-1l.54-1.25.72-1.64a.94.94,0,0,1,.34-.43,1.17,1.17,0,0,1,.46-.17,1.46,1.46,0,0,1,.51,0,2.39,2.39,0,0,1,.45.14,1.47,1.47,0,0,1,.62.54,1.11,1.11,0,0,1,.14.41,1,1,0,0,1-.08.49l-5.75,13.06c-.21.47-.44.75-.69.83a1.35,1.35,0,0,1-1-.13,3.82,3.82,0,0,1-.76-.42.77.77,0,0,1-.29-.46,1.28,1.28,0,0,1,.09-.64c.09-.25.21-.56.38-.94l.41-.93a12,12,0,0,1-1.35.88,5.6,5.6,0,0,1-1.49.57,5.39,5.39,0,0,1-1.67.11,6.27,6.27,0,0,1-1.88-.52,6.71,6.71,0,0,1-2.27-1.51,5.93,5.93,0,0,1-1.24-1.9,6.41,6.41,0,0,1-.43-2.12,10.33,10.33,0,0,1,.14-2.16,11.47,11.47,0,0,1,.5-2C773.65,908.49,773.86,907.94,774.07,907.46Z" transform="translate(-466.36 -694.72)"/>
      <path class="cls-1" d="M791.24,916.65a11.42,11.42,0,0,1,2.11-3.29,7.81,7.81,0,0,1,6.32-2.51,11.24,11.24,0,0,1,4,1,8.32,8.32,0,0,1,1.41.8,9.9,9.9,0,0,1,1.26,1.07,8.39,8.39,0,0,1,1,1.3,5.71,5.71,0,0,1,.67,1.47,4.84,4.84,0,0,1,.19,1.56,4.21,4.21,0,0,1-.38,1.6,1.33,1.33,0,0,1-.67.78,1.64,1.64,0,0,1-.89.06c-.3,0-.64-.11-1-.2a10,10,0,0,0-1.32-.23l-10.48-1.17a4.22,4.22,0,0,0,0,1.69,4.48,4.48,0,0,0,.51,1.41,5.07,5.07,0,0,0,.91,1.15,8.2,8.2,0,0,0,1.14.92,9.72,9.72,0,0,0,1.19.7c.4.2.76.38,1.1.52a7.54,7.54,0,0,0,1.63.51c.57.1,1.1.17,1.6.22l1.31.09a2.6,2.6,0,0,1,.79.14,1.62,1.62,0,0,1,.92.8,1.53,1.53,0,0,1-.11,1.18,1.08,1.08,0,0,1-.81.58,4.2,4.2,0,0,1-1.43,0,13.06,13.06,0,0,1-1.78-.36c-.63-.17-1.24-.36-1.82-.57s-1.11-.4-1.59-.59l-1.07-.45a8,8,0,0,1-1.79-1.07,8.8,8.8,0,0,1-2.59-3.22,8.2,8.2,0,0,1-.65-1.94,7.15,7.15,0,0,1-.1-2A6.43,6.43,0,0,1,791.24,916.65Zm3,.06,1.68.21,2,.24c.7.09,1.42.16,2.15.24l2.11.21,1.88.15c.58,0,1.08.06,1.49,0a2.36,2.36,0,0,0-.12-1.12,3.08,3.08,0,0,0-.63-1,5.73,5.73,0,0,0-1.1-.91,10.77,10.77,0,0,0-1.52-.8,5.1,5.1,0,0,0-1-.3,7.08,7.08,0,0,0-1.27-.13,7.66,7.66,0,0,0-1.47.12,5.89,5.89,0,0,0-1.52.5,6.5,6.5,0,0,0-1.45,1A6.35,6.35,0,0,0,794.29,916.71Z" transform="translate(-466.36 -694.72)"/>
      <path class="cls-1" d="M807.92,930.28a1.32,1.32,0,0,1,.45-.53,2.27,2.27,0,0,1,.71-.36,3,3,0,0,1,.79-.13,1.65,1.65,0,0,1,.72.14,3.8,3.8,0,0,1,.65.36,2.14,2.14,0,0,1,.52.52,1.43,1.43,0,0,1,.25.68,1.83,1.83,0,0,1-2.61,1.76,4.13,4.13,0,0,1-.63-.35,2.75,2.75,0,0,1-.59-.54,1.71,1.71,0,0,1-.35-.7A1.29,1.29,0,0,1,807.92,930.28Z" transform="translate(-466.36 -694.72)"/>
      <path class="cls-1" d="M815.7,937.09c.08-.16.22-.41.4-.75s.41-.74.67-1.23.54-1.06.85-1.7.64-1.34,1-2.1c.43-1,.81-1.91,1.12-2.71s.59-1.48.84-2c.15-.35.3-.68.43-1s.26-.57.38-.84.23-.53.35-.78l.37-.83a8.73,8.73,0,0,1,.41-.8,3.82,3.82,0,0,1,.56-.72,1.66,1.66,0,0,1,.69-.44,1.05,1.05,0,0,1,.81.06,1.4,1.4,0,0,1,.56.39,1.26,1.26,0,0,1,.26.5,1.45,1.45,0,0,1,0,.55,2.37,2.37,0,0,1-.13.54q-.07.21-.3.69c-.15.32-.34.7-.55,1.13l-.67,1.37-.69,1.41c-.22.46-.43.88-.61,1.27s-.31.69-.4.91c-.38.89-.75,1.78-1.11,2.69s-.72,1.79-1.09,2.66-.78,1.67-1.2,2.43a12.34,12.34,0,0,1-1.38,2,7.38,7.38,0,0,1-1.66,1.46,5.5,5.5,0,0,1-2,.79,7.31,7.31,0,0,1-2.51,0,13.29,13.29,0,0,1-3.08-1l-.69-.33a3.38,3.38,0,0,1-.75-.5,2,2,0,0,1-.53-.71,1.26,1.26,0,0,1,0-.92.91.91,0,0,1,.43-.57,1.17,1.17,0,0,1,.63-.11,2.53,2.53,0,0,1,.72.18c.25.11.49.22.71.34.49.21,1,.41,1.45.59a7.65,7.65,0,0,0,1.43.4,5.86,5.86,0,0,0,1.45.06,4.45,4.45,0,0,0,1.47-.43,1.19,1.19,0,0,0,.36-.31,6.31,6.31,0,0,0,.39-.54c.13-.2.26-.4.37-.61Zm10.1-18.71a1.58,1.58,0,0,1-.57-.54,6.42,6.42,0,0,1-.48-.9,4.67,4.67,0,0,1-.31-.91,1.11,1.11,0,0,1,0-.58,1.85,1.85,0,0,1,.34-.5,1.61,1.61,0,0,1,.52-.34,2,2,0,0,1,.65-.11,2.21,2.21,0,0,1,.75.18,1.19,1.19,0,0,1,.48.51,5.19,5.19,0,0,1,.57,1.84,1.33,1.33,0,0,1-.06.72,1.8,1.8,0,0,1-.35.55,1,1,0,0,1-.93.26A2.33,2.33,0,0,1,825.8,918.38Z" transform="translate(-466.36 -694.72)"/>
      <path class="cls-1" d="M826.34,937.25a1.6,1.6,0,0,1,.37-.43,2.69,2.69,0,0,1,.62-.39,1.17,1.17,0,0,1,.65-.1.54.54,0,0,1,.43.43,7.4,7.4,0,0,0,.48,1.15,2.65,2.65,0,0,0,.58.77,3.82,3.82,0,0,0,.82.56q.48.24,1.17.54a8.3,8.3,0,0,0,1.77.55,12.13,12.13,0,0,0,1.77.25,7.24,7.24,0,0,0,1.41,0c.38-.06.6-.14.64-.25a.65.65,0,0,0-.08-.57,3.47,3.47,0,0,0-.57-.78,10.89,10.89,0,0,0-1-.89,13.71,13.71,0,0,0-1.24-.91c-.54-.33-1.09-.66-1.64-1s-1.07-.73-1.57-1.12a12.37,12.37,0,0,1-1.35-1.22,5.58,5.58,0,0,1-1-1.36,3.54,3.54,0,0,1-.06-3.16,4.86,4.86,0,0,1,1.08-1.59,6,6,0,0,1,1.52-1.08A7,7,0,0,1,833,926a8.77,8.77,0,0,1,2-.14,10.75,10.75,0,0,1,2,.26,11,11,0,0,1,1.94.64,6.56,6.56,0,0,1,1.66,1,5.12,5.12,0,0,1,1.06,1.22,3.1,3.1,0,0,1,.46,1.28,2.25,2.25,0,0,1-.16,1.19q-.15.35-.36.78a4.75,4.75,0,0,1-.48.79,1.69,1.69,0,0,1-.63.51.92.92,0,0,1-.79,0,.72.72,0,0,1-.37-.3.82.82,0,0,1-.09-.38,1.19,1.19,0,0,1,.08-.4l.14-.37a1.87,1.87,0,0,0,.2-1,1.42,1.42,0,0,0-.32-.76,2.78,2.78,0,0,0-.76-.65,9.41,9.41,0,0,0-1.15-.58,4.72,4.72,0,0,0-1-.31,9.84,9.84,0,0,0-1.23-.14,8,8,0,0,0-1.29.06,5.54,5.54,0,0,0-1.2.27,3.82,3.82,0,0,0-1,.48,1.82,1.82,0,0,0-.61.72,1.24,1.24,0,0,0,0,1.08,3.8,3.8,0,0,0,.88,1.08,11.68,11.68,0,0,0,1.42,1.09c.54.37,1.1.73,1.68,1.09s1.4.93,2.06,1.44a9.44,9.44,0,0,1,1.67,1.59,4.42,4.42,0,0,1,.91,1.79,3.06,3.06,0,0,1-.23,2,2.35,2.35,0,0,1-1,1.14,4.51,4.51,0,0,1-1.56.55,8.18,8.18,0,0,1-1.87.09,13.85,13.85,0,0,1-1.95-.23q-.95-.18-1.77-.42a12.83,12.83,0,0,1-1.37-.49l-.92-.44a11.65,11.65,0,0,1-1-.6,6.81,6.81,0,0,1-.94-.74,3.87,3.87,0,0,1-.7-.88,2.38,2.38,0,0,1-.34-1A2.16,2.16,0,0,1,826.34,937.25Z" transform="translate(-466.36 -694.72)"/>
    </g>
    <g id="html">
      <path class="cls-1" d="M498.54,724.66c.37-1.2.72-2.32,1-3.37s.62-2.06.92-3,.6-2,.9-3,.63-2.13,1-3.32.75-2.49,1.18-3.9.93-3,1.48-4.79a5.46,5.46,0,0,1,.28-.71,2.41,2.41,0,0,1,.43-.67,1.56,1.56,0,0,1,.64-.42,1.47,1.47,0,0,1,.92,0,1.13,1.13,0,0,1,.51.39,2.55,2.55,0,0,1,.39.71,3.11,3.11,0,0,1,.21.85,2.12,2.12,0,0,1-.07.84l-2.55,8.39c-.07.23,0,.38.18.44,2.06.66,3.78,1.23,5.19,1.69l3.49,1.13,2.12.69,1.12.36a2,2,0,0,0,.47.12h.18c.43-1.47.84-2.93,1.22-4.39s.8-2.91,1.26-4.37a5.51,5.51,0,0,1,.36-.89,2.4,2.4,0,0,1,.5-.68,1.42,1.42,0,0,1,.64-.36,1.48,1.48,0,0,1,.82.06,1.6,1.6,0,0,1,.85.58,1.81,1.81,0,0,1,.29.89,3.57,3.57,0,0,1-.08,1.06c-.08.39-.18.77-.29,1.14s-.28.89-.43,1.42-.31,1.11-.49,1.76-.37,1.37-.59,2.16-.45,1.66-.7,2.62c0,.08,0,.2,0,.34a3.32,3.32,0,0,1,0,.46l0,.48a1.88,1.88,0,0,1-.08.4,1.66,1.66,0,0,1-.18.4l-.23.45c-.1.16-.2.33-.29.5-.44,1.66-.82,3.06-1.12,4.21s-.57,2.11-.78,2.87l-.5,1.79c-.12.43-.22.76-.29,1a2,2,0,0,1-.88,1.14,1.7,1.7,0,0,1-1.45.14,1.58,1.58,0,0,1-1.1-1,4.19,4.19,0,0,1,.26-2.29l2.51-8.4-.39-.12-.84-.27-1.49-.46-2.31-.72-3.3-1L505,716.44c-.06,0-.14,0-.25.13a1,1,0,0,0-.23.37c-.43,1.39-.84,2.86-1.22,4.43s-.81,3.1-1.28,4.6a.89.89,0,0,1-.36.44,2.16,2.16,0,0,1-.62.27,2.74,2.74,0,0,1-.7.09,1.85,1.85,0,0,1-.62-.09,1.58,1.58,0,0,1-.51-.27,1.61,1.61,0,0,1-.44-.46,1.66,1.66,0,0,1-.27-.59A1.3,1.3,0,0,1,498.54,724.66Z" transform="translate(-466.36 -694.72)"/>
      <path class="cls-1" d="M532.3,734.07a9.25,9.25,0,0,1,.32-.88c.11-.29.22-.6.32-.92a10.59,10.59,0,0,0,.31-1.2c.08-.4.16-.81.23-1.22l.24-1.26q.13-.63.33-1.26c.21-.67.39-1.34.54-2s.3-1.35.45-2,.3-1.39.46-2.09.35-1.42.56-2.14l1.2-3.93c-.4-.12-.84-.22-1.32-.32l-1.47-.27c-.51-.09-1-.18-1.52-.29s-1-.24-1.43-.38a4,4,0,0,1-1.64-.85,1.07,1.07,0,0,1-.28-1.06,2.53,2.53,0,0,1,.61-1.24,2.09,2.09,0,0,1,.92-.57,2.82,2.82,0,0,1,1.09-.09,5.4,5.4,0,0,1,1.09.23c1.8.58,3.64,1.14,5.5,1.65s3.76,1.1,5.72,1.73a5.11,5.11,0,0,0,.86.2l.89.14.91.14a6.32,6.32,0,0,1,.91.22,1.6,1.6,0,0,1,.72.46,2.22,2.22,0,0,1,.44.72,2.49,2.49,0,0,1,.16.87,2.9,2.9,0,0,1-.13.89,1.37,1.37,0,0,1-.35.55,2.8,2.8,0,0,1-.65.52,2.88,2.88,0,0,1-.79.33,1.39,1.39,0,0,1-.76,0,2.08,2.08,0,0,1-.72-.39,5.64,5.64,0,0,1-.56-.52c-.16-.19-.31-.35-.46-.5a.94.94,0,0,0-.43-.29l-.71-.22-1.14-.34c-.41-.12-.81-.23-1.19-.32a6.35,6.35,0,0,0-.86-.18l-.13.41c-.06.2-.15.51-.28.92s-.31,1-.55,1.8c-.39,1.25-.74,2.51-1,3.79s-.57,2.57-.81,3.9-.63,2.47-1,3.7-.62,2.5-.85,3.82a4,4,0,0,0,0,.51c0,.25,0,.5,0,.78s0,.54-.06.79a2.6,2.6,0,0,1-.08.55,3.92,3.92,0,0,1-.28.69.87.87,0,0,1-.38.4,1.28,1.28,0,0,1-.62.11,4.93,4.93,0,0,1-.95-.19,2.59,2.59,0,0,1-1.2-.61,1.64,1.64,0,0,1-.47-.9,3,3,0,0,1,.05-1.1C532.06,734.9,532.17,734.49,532.3,734.07Z" transform="translate(-466.36 -694.72)"/>
      <path class="cls-1" d="M548.32,738.85a4.14,4.14,0,0,1,.37-.84,5.35,5.35,0,0,0,.36-.83c.85-2.71,1.58-5,2.18-6.85s1.13-3.4,1.55-4.63.75-2.21,1-2.94.45-1.32.6-1.78a8.28,8.28,0,0,1,.65-1.55,6.36,6.36,0,0,1,.85-1.2,3.18,3.18,0,0,1,1-.72,1.32,1.32,0,0,1,1-.07,1.38,1.38,0,0,1,.64.42,2.17,2.17,0,0,1,.34.66,2.37,2.37,0,0,1,.09.76,2.69,2.69,0,0,1-.13.76l0,.09a5.58,5.58,0,0,1-.05.64,5,5,0,0,0,0,1.19c0,.54.11,1.15.21,1.84s.2,1.41.33,2.17.26,1.51.38,2.23.24,1.39.35,2,.2,1.1.26,1.47.07.55.13.91.11.75.17,1.15.13.81.19,1.21.14.77.2,1.09.12.58.16.79a.71.71,0,0,0,.13.33.83.83,0,0,0,.48,0,4.46,4.46,0,0,0,.6-.27,5.74,5.74,0,0,0,.55-.34l.35-.25.52-.44.72-.6c.29-.24.62-.54,1-.88l1.43-1.27q.87-.78,1.92-1.65l2.11-1.76c.71-.6,1.4-1.19,2.06-1.78s1.24-1.16,1.73-1.7c.17-.19.34-.4.52-.63a7.21,7.21,0,0,1,.59-.65,5.49,5.49,0,0,1,.44-.52,2.55,2.55,0,0,1,.48-.4,1.92,1.92,0,0,1,.55-.2,1.46,1.46,0,0,1,.64.06,2,2,0,0,1,1.37,2.7q-1.75,5.6-3.73,11.29t-3.82,11.58a1,1,0,0,1-.37.55,1.46,1.46,0,0,1-.51.23,1.81,1.81,0,0,1-.51,0,1.91,1.91,0,0,1-.35-.05l-.42-.23a4,4,0,0,1-.76-.58,3,3,0,0,1-.65-.9,1.56,1.56,0,0,1,0-1.17,4.6,4.6,0,0,1,.4-.88c.17-.29.36-.58.54-.86l.56-.84a4.22,4.22,0,0,0,.44-.84L573,734.5l.44-1.44c.15-.5.3-1,.43-1.53a23.76,23.76,0,0,0-2,1.63c-.68.6-1.37,1.23-2.06,1.88l-2.08,2c-.68.65-1.37,1.26-2,1.84a22.87,22.87,0,0,1-2,1.56,12,12,0,0,1-2,1.09,1.74,1.74,0,0,0-.25.11,1,1,0,0,1-.34.1,1.82,1.82,0,0,1-.53,0,3.52,3.52,0,0,1-.79-.19,1.51,1.51,0,0,1-.76-.69,8.1,8.1,0,0,1-.66-1.38,17.76,17.76,0,0,1-.57-1.78c-.18-.64-.33-1.27-.46-1.88s-.25-1.17-.34-1.68-.16-.93-.2-1.23l-.84-5.75c-.22.61-.46,1.32-.72,2.11s-.56,1.7-.87,2.72l-2.11,6.7a6,6,0,0,0-.06.91,3,3,0,0,1-.13.93,5.39,5.39,0,0,1-.94,1.88,1.19,1.19,0,0,1-1.38.38,2.85,2.85,0,0,1-1.22-.66,1.56,1.56,0,0,1-.47-.89,2.71,2.71,0,0,1,0-1.09Q548.11,739.53,548.32,738.85Z" transform="translate(-466.36 -694.72)"/>
      <path class="cls-1" d="M578.91,751.14a3.76,3.76,0,0,1,.36-.89l.25-.37c.16-.52.3-1,.41-1.28s.21-.6.29-.82.15-.39.22-.53l.18-.43q.09-.23.18-.48c.07-.18.14-.42.24-.72.34-1.09.65-2.2.94-3.32s.57-2.28.84-3.43.57-2.33.87-3.5.63-2.35,1-3.52c.31-1,.57-1.8.8-2.46a8.19,8.19,0,0,1,.67-1.53,1.67,1.67,0,0,1,.72-.71,1.3,1.3,0,0,1,.93,0,1.86,1.86,0,0,1,.66.39,2.21,2.21,0,0,1,.47.66,2.15,2.15,0,0,1,.21.8,2,2,0,0,1-.09.84q-.22.75-.51,1.5c-.18.5-.35,1-.49,1.45-.42,1.33-.81,2.66-1.19,4s-.74,2.69-1.11,4.06-.74,2.75-1.13,4.16-.8,2.85-1.23,4.3a.92.92,0,0,0-.07.38,1,1,0,0,0,.4.18l1.31.48,2,.73,2.57.9,3.1,1a7.58,7.58,0,0,0,1.43.31,6.94,6.94,0,0,1,1.51.33,1.63,1.63,0,0,1,.64.39,2.07,2.07,0,0,1,.6,1.35,2,2,0,0,1-.09.76,1.56,1.56,0,0,1-.4.63,2.72,2.72,0,0,1-.67.48,3.1,3.1,0,0,1-.8.25,1.68,1.68,0,0,1-.78,0,4.4,4.4,0,0,1-.89-.38l-.77-.46a8.07,8.07,0,0,0-.89-.5,8.93,8.93,0,0,0-1.28-.51,35.59,35.59,0,0,0-3.75-1,36.68,36.68,0,0,1-3.77-1,6.05,6.05,0,0,1-1.2-.52,6.81,6.81,0,0,0-1.23-.53l-.38-.09a4.07,4.07,0,0,1-.5-.13,1.19,1.19,0,0,1-.56-.35C578.78,751.85,578.77,751.56,578.91,751.14Z" transform="translate(-466.36 -694.72)"/>
      <path class="cls-1" d="M600.8,757.77a.86.86,0,0,1,.06-.35,5.17,5.17,0,0,1,.28-.63,3.09,3.09,0,0,1,.48-.66,2.07,2.07,0,0,1,.65-.47,1.07,1.07,0,0,1,.79,0,1.64,1.64,0,0,1,.69.46l.79.78a8.39,8.39,0,0,0,1,.87,5.22,5.22,0,0,0,1.44.7,20.76,20.76,0,0,0,3.07.76,7.23,7.23,0,0,0,2.59,0,4.23,4.23,0,0,0,2-1,4.8,4.8,0,0,0,1.28-2.18,2.73,2.73,0,0,0,.1-.73,4.34,4.34,0,0,0-.09-1,4.89,4.89,0,0,0-.37-1.12,4.73,4.73,0,0,0-.71-1.13,5.35,5.35,0,0,0-1.13-1,5.88,5.88,0,0,0-1.61-.78,5.22,5.22,0,0,0-1.54-.25,9.59,9.59,0,0,0-1.38.09,8,8,0,0,0-1.39.33l-1-.33a3.86,3.86,0,0,1-.91-.45,1.71,1.71,0,0,1-.6-.66,1.24,1.24,0,0,1,0-1l0-.17.07-.16a10.45,10.45,0,0,0,.7-1.69c.25-.74.52-1.56.8-2.46s.59-1.82.91-2.77a27.75,27.75,0,0,1,1-2.63,10.68,10.68,0,0,1,1.14-2,1.92,1.92,0,0,1,1.26-.89c.72.15,1.42.32,2.11.51s1.36.4,2,.61l1.9.63,1.95.64c.77.25,1.54.48,2.29.71s1.51.41,2.27.58l.47.08.38.06.33.07a1.89,1.89,0,0,1,.87.55,1.93,1.93,0,0,1,.4.81,2.56,2.56,0,0,1,0,.92,5.6,5.6,0,0,1-.18.89,1.31,1.31,0,0,1-.37.6,1.61,1.61,0,0,1-.57.32,2,2,0,0,1-.65.08,2.08,2.08,0,0,1-.63-.1,3.27,3.27,0,0,1-.82-.37,5.17,5.17,0,0,1-.62-.43L622,742a1.55,1.55,0,0,0-.52-.28l-.72-.24L619,741l-2.18-.69-2.17-.66c-.67-.2-1.23-.35-1.68-.47a1.81,1.81,0,0,0-.69-.11c-.15.49-.28.88-.39,1.18s-.2.55-.29.76-.16.39-.23.54-.14.32-.21.5-.16.39-.26.65-.2.58-.32,1c-.07.22-.15.46-.22.71l-.19.7-.12.55c0,.14,0,.22,0,.23a4.19,4.19,0,0,0,.72.16l.77.1.85.14a6.52,6.52,0,0,1,1,.24,10.26,10.26,0,0,1,3.13,1.63,9.31,9.31,0,0,1,2.25,2.49,8,8,0,0,1,1.11,3.08,7.67,7.67,0,0,1-.31,3.43,8.29,8.29,0,0,1-1.92,3.37,7.72,7.72,0,0,1-3,1.92,10,10,0,0,1-3.74.52,15.47,15.47,0,0,1-4.22-.78c-.51-.16-1.08-.36-1.74-.6a10.27,10.27,0,0,1-1.89-.91,7.06,7.06,0,0,1-1.57-1.3,3.43,3.43,0,0,1-.83-1.84Z" transform="translate(-466.36 -694.72)"/>
    </g>
    <g id="css">
      <path class="cls-1" d="M466.4,821.25a23.73,23.73,0,0,1,.33-2.47c.17-.86.38-1.73.64-2.6s.53-1.73.83-2.58.62-1.65.95-2.39a14.1,14.1,0,0,1,1.62-2.72A12.62,12.62,0,0,1,473.2,806a12,12,0,0,1,3.16-1.75,9.21,9.21,0,0,1,3.81-.51,12.53,12.53,0,0,1,3.54.76,10.56,10.56,0,0,1,3.08,1.78,8.41,8.41,0,0,1,2.12,2.72,6.86,6.86,0,0,1,.65,3.57,4.11,4.11,0,0,1-.14.83,3.48,3.48,0,0,1-.34.9,2.13,2.13,0,0,1-.6.7,1.38,1.38,0,0,1-.94.23,1.29,1.29,0,0,1-1-.43,2.25,2.25,0,0,1-.45-1,5.42,5.42,0,0,1-.1-1.24c0-.44,0-.87.05-1.26a2,2,0,0,0-.52-1.41,6,6,0,0,0-1.45-1.24,9.51,9.51,0,0,0-2-.91,8,8,0,0,0-2-.42A5.87,5.87,0,0,0,477,808a8.63,8.63,0,0,0-2.51,2,13.37,13.37,0,0,0-1.88,2.88,25,25,0,0,0-1.32,3.23,24.47,24.47,0,0,0-.8,3.1,19.57,19.57,0,0,0-.34,2.43,7.15,7.15,0,0,0,.57,3.43,8.12,8.12,0,0,0,1.93,2.66,9.44,9.44,0,0,0,2.83,1.76,10.23,10.23,0,0,0,3.29.76c.56,0,1.22.06,2,.07s1.53,0,2.31-.07a22.13,22.13,0,0,0,2.33-.29,9.18,9.18,0,0,0,2-.55,1.87,1.87,0,0,0,.59-.38c.16-.15.33-.3.5-.43a2.36,2.36,0,0,1,.57-.35,1.7,1.7,0,0,1,.78-.11,1.81,1.81,0,0,1,1.39.71,2.23,2.23,0,0,1,.43,1.55,2.43,2.43,0,0,1-.21,1,1.63,1.63,0,0,1-.54.64,6.76,6.76,0,0,1-2.27,1,20.73,20.73,0,0,1-3.08.61,30.88,30.88,0,0,1-3.35.25c-1.13,0-2.16,0-3.09,0a25.6,25.6,0,0,1-3.25-.43,16.19,16.19,0,0,1-3.06-.92A11.31,11.31,0,0,1,470,831a8.57,8.57,0,0,1-2.09-2.31,10.5,10.5,0,0,1-1.28-3.19A15.1,15.1,0,0,1,466.4,821.25Z" transform="translate(-466.36 -694.72)"/>
      <path class="cls-1" d="M497.33,830a3,3,0,0,1,.3-.91,4.06,4.06,0,0,1,.65-1,1.73,1.73,0,0,1,.83-.56c.29-.08.56.06.8.43A13.44,13.44,0,0,0,501,830a4.2,4.2,0,0,0,1.14,1.16,3.67,3.67,0,0,0,1.36.52,18,18,0,0,0,1.83.21,8.41,8.41,0,0,0,2.69-.27,11.73,11.73,0,0,0,2.55-1,7.86,7.86,0,0,0,1.93-1.36,2.39,2.39,0,0,0,.81-1.46,1.54,1.54,0,0,0-.37-1.05,5.14,5.14,0,0,0-1.14-1.06,12,12,0,0,0-1.73-1,16.81,16.81,0,0,0-2.13-.82c-.88-.19-1.77-.39-2.68-.62s-1.8-.48-2.66-.77a15.48,15.48,0,0,1-2.41-1,8.47,8.47,0,0,1-2-1.43,5.68,5.68,0,0,1-1.26-1.91,5.79,5.79,0,0,1-.34-2.53,9.09,9.09,0,0,1,.71-3,9.51,9.51,0,0,1,1.54-2.5,10.38,10.38,0,0,1,2.18-1.94,12.73,12.73,0,0,1,2.62-1.35,14.1,14.1,0,0,1,2.87-.75,13.64,13.64,0,0,1,2.92-.13,8.62,8.62,0,0,1,2.7.6,6.56,6.56,0,0,1,2,1.29,5.31,5.31,0,0,1,1.22,1.73,4.19,4.19,0,0,1,.35,2c0,.35-.06.75-.1,1.21a5.73,5.73,0,0,1-.28,1.27,2.68,2.68,0,0,1-.59,1,1.3,1.3,0,0,1-1.07.35,1.13,1.13,0,0,1-.64-.21.94.94,0,0,1-.31-.45,1.69,1.69,0,0,1-.09-.56c0-.2,0-.38,0-.55a5,5,0,0,0-.17-1.87,2.69,2.69,0,0,0-.78-1.19,3.43,3.43,0,0,0-1.32-.67,10.1,10.1,0,0,0-1.82-.28,5.21,5.21,0,0,0-1.57.16,9.66,9.66,0,0,0-1.74.59,11.66,11.66,0,0,0-1.73.94,8.91,8.91,0,0,0-1.53,1.24A6.66,6.66,0,0,0,501,814a4,4,0,0,0-.49,1.64,2.3,2.3,0,0,0,.57,1.72,5.46,5.46,0,0,0,1.71,1.23,15.23,15.23,0,0,0,2.44.91c.91.26,1.85.5,2.8.74.77.19,1.55.4,2.32.64a17.42,17.42,0,0,1,2.21.81,12.21,12.21,0,0,1,1.93,1,6.67,6.67,0,0,1,1.52,1.37,5.68,5.68,0,0,1,1,1.76,6,6,0,0,1,.24,2.21,5.46,5.46,0,0,1-.84,2.66,7.64,7.64,0,0,1-1.86,2,11.71,11.71,0,0,1-2.5,1.41,18.41,18.41,0,0,1-5.35,1.34,13.7,13.7,0,0,1-2.07.05c-.44,0-.92-.08-1.47-.16a10.8,10.8,0,0,1-1.63-.35,9.17,9.17,0,0,1-1.6-.63,5.42,5.42,0,0,1-1.37-1,4.07,4.07,0,0,1-.91-1.43A4.55,4.55,0,0,1,497.33,830Z" transform="translate(-466.36 -694.72)"/>
      <path class="cls-1" d="M524.12,831.74a2.6,2.6,0,0,1,.29-.9,4.8,4.8,0,0,1,.65-1,1.78,1.78,0,0,1,.83-.56c.29-.08.56.06.8.43a14,14,0,0,0,1.14,2.09,4.27,4.27,0,0,0,1.13,1.15,3.67,3.67,0,0,0,1.36.52,15.52,15.52,0,0,0,1.83.21,8.38,8.38,0,0,0,2.69-.27,12.34,12.34,0,0,0,2.56-1,8.07,8.07,0,0,0,1.93-1.37,2.39,2.39,0,0,0,.81-1.46,1.55,1.55,0,0,0-.38-1.05,5.14,5.14,0,0,0-1.14-1.06,11.83,11.83,0,0,0-1.73-1,16.24,16.24,0,0,0-2.13-.82c-.87-.19-1.76-.39-2.67-.61s-1.8-.49-2.67-.78a15.48,15.48,0,0,1-2.41-1,8.92,8.92,0,0,1-2-1.43,5.68,5.68,0,0,1-1.26-1.91,5.79,5.79,0,0,1-.34-2.53,9.4,9.4,0,0,1,.71-3,10,10,0,0,1,1.54-2.5,10.63,10.63,0,0,1,2.18-1.94,12.73,12.73,0,0,1,2.62-1.35,14.27,14.27,0,0,1,2.87-.75,13.67,13.67,0,0,1,2.92-.13,8.36,8.36,0,0,1,2.71.61,6.42,6.42,0,0,1,2,1.28,5.5,5.5,0,0,1,1.23,1.73,4.31,4.31,0,0,1,.34,2c0,.35-.06.76-.1,1.21a5.61,5.61,0,0,1-.27,1.27,2.7,2.7,0,0,1-.6,1,1.27,1.27,0,0,1-1.07.35,1,1,0,0,1-.64-.21,1,1,0,0,1-.31-.45,2,2,0,0,1-.08-.56,4.91,4.91,0,0,1,0-.55,5.07,5.07,0,0,0-.17-1.87,2.6,2.6,0,0,0-.77-1.19,3.39,3.39,0,0,0-1.33-.66,8.59,8.59,0,0,0-1.82-.28,5.21,5.21,0,0,0-1.57.15,9.66,9.66,0,0,0-1.74.59,11.66,11.66,0,0,0-1.73.94,8.44,8.44,0,0,0-1.52,1.25,6.44,6.44,0,0,0-1.11,1.48,4,4,0,0,0-.49,1.64,2.3,2.3,0,0,0,.57,1.72,5.7,5.7,0,0,0,1.71,1.23,14.66,14.66,0,0,0,2.44.91c.92.26,1.85.5,2.8.74.78.19,1.55.4,2.33.64a23,23,0,0,1,2.21.81,12.56,12.56,0,0,1,1.92,1,6.69,6.69,0,0,1,1.52,1.37,5.45,5.45,0,0,1,1.2,4,5.42,5.42,0,0,1-.83,2.65,7.69,7.69,0,0,1-1.87,2,12.19,12.19,0,0,1-2.5,1.42,18.81,18.81,0,0,1-5.35,1.33,15.34,15.34,0,0,1-2.07.06c-.43,0-.92-.09-1.46-.16a12.38,12.38,0,0,1-1.64-.36,7.83,7.83,0,0,1-1.6-.63,5.42,5.42,0,0,1-1.37-1,4.07,4.07,0,0,1-.91-1.43A4.41,4.41,0,0,1,524.12,831.74Z" transform="translate(-466.36 -694.72)"/>
      <path class="cls-1" d="M549.25,836.17a4.62,4.62,0,0,1,.13-.66,5,5,0,0,1,.31-.84,2.89,2.89,0,0,1,.47-.69.85.85,0,0,1,.66-.27,6.83,6.83,0,0,1,1,.13,7,7,0,0,1,.71.2l.58.23a5,5,0,0,0,.63.23,7,7,0,0,0,.85.21c.33.06.75.11,1.25.15s1.14,0,1.83.06a20.2,20.2,0,0,0,2.17-.09,13,13,0,0,0,2.21-.41,6.45,6.45,0,0,0,2-.9,5.11,5.11,0,0,0,1.46-1.54,5,5,0,0,0,.67-2.34,2.14,2.14,0,0,0-.33-1.4,2.88,2.88,0,0,0-1.07-.93,6.34,6.34,0,0,0-1.61-.56,11.56,11.56,0,0,0-1.91-.27,2.75,2.75,0,0,0-1,.1l-.94.28q-.48.15-1,.27a3.75,3.75,0,0,1-1.12.09,3,3,0,0,1-1.68-.53,1.4,1.4,0,0,1-.51-1.28,2.43,2.43,0,0,1,.61-1.54,4.53,4.53,0,0,1,1.41-1,8.63,8.63,0,0,1,1.84-.6c.67-.14,1.33-.27,2-.38q1-.58,2.13-1.32a15.38,15.38,0,0,0,2.09-1.68,10.21,10.21,0,0,0,1.62-2,4.92,4.92,0,0,0,.74-2.29c0-.12-.09-.24-.29-.34a4.46,4.46,0,0,0-.73-.24c-.28-.06-.58-.11-.87-.15l-.72-.08a10.15,10.15,0,0,0-1.45,0q-.76.08-1.56.21c-.52.09-1,.21-1.5.34a9.51,9.51,0,0,0-1.28.44,6.44,6.44,0,0,0-.71.31,5.06,5.06,0,0,1-.49.27,2.05,2.05,0,0,1-.41.18,1.32,1.32,0,0,1-.46,0,2,2,0,0,1-.59-.14,2.81,2.81,0,0,1-.59-.33,1.74,1.74,0,0,1-.44-.46.85.85,0,0,1-.16-.55,2.27,2.27,0,0,1,.68-1.49,5.3,5.3,0,0,1,1.57-1.1,12.75,12.75,0,0,1,2.14-.74,19.29,19.29,0,0,1,2.34-.45,20,20,0,0,1,2.2-.2,13.7,13.7,0,0,1,1.72,0,7.12,7.12,0,0,1,4.3,1.45,4.37,4.37,0,0,1,1.29,3.8,4.48,4.48,0,0,1-.44,1.48,10.94,10.94,0,0,1-1.15,1.93,22.71,22.71,0,0,1-1.88,2.21,25.52,25.52,0,0,1-2.61,2.33,10.85,10.85,0,0,1,1.89,1,8.13,8.13,0,0,1,1.61,1.34,6,6,0,0,1,1.1,1.65,3.91,3.91,0,0,1,.34,1.88,13,13,0,0,1-.83,4,7.62,7.62,0,0,1-1.85,2.75,7.79,7.79,0,0,1-2.81,1.66,16.4,16.4,0,0,1-3.75.79,38,38,0,0,1-4.65.15c-1.69,0-3.52-.12-5.49-.25a1.84,1.84,0,0,1-.9-.27,1.41,1.41,0,0,1-.5-.53,1.94,1.94,0,0,1-.21-.67A5.24,5.24,0,0,1,549.25,836.17Z" transform="translate(-466.36 -694.72)"/>
    </g>
    <g id="sass">
      <path class="cls-1" d="M779.52,839.43a2.72,2.72,0,0,1,.26-.88,4.14,4.14,0,0,1,.62-1,1.68,1.68,0,0,1,.78-.56c.28-.08.54,0,.78.4a12.7,12.7,0,0,0,1.13,2,3.77,3.77,0,0,0,1.11,1.08,3.41,3.41,0,0,0,1.32.47,15,15,0,0,0,1.76.16,8.08,8.08,0,0,0,2.58-.32,12.07,12.07,0,0,0,2.44-1,7.65,7.65,0,0,0,1.83-1.36,2.28,2.28,0,0,0,.76-1.42,1.54,1.54,0,0,0-.38-1,5,5,0,0,0-1.11-1,11.46,11.46,0,0,0-1.69-.91,16.59,16.59,0,0,0-2.06-.74c-.84-.16-1.7-.34-2.58-.53s-1.74-.42-2.58-.68a15.26,15.26,0,0,1-2.34-.95,8.2,8.2,0,0,1-1.89-1.33,5.39,5.39,0,0,1-1.25-1.81,5.54,5.54,0,0,1-.37-2.42,8.76,8.76,0,0,1,.63-2.94,9.75,9.75,0,0,1,1.44-2.44,10.41,10.41,0,0,1,2.06-1.91,12.3,12.3,0,0,1,2.5-1.35,13.74,13.74,0,0,1,2.75-.79,13.93,13.93,0,0,1,2.8-.19,8.07,8.07,0,0,1,2.61.53,6.21,6.21,0,0,1,2,1.18,5.06,5.06,0,0,1,1.2,1.64,4,4,0,0,1,.37,1.87c0,.34-.05.73-.08,1.17a4.8,4.8,0,0,1-.24,1.22,2.62,2.62,0,0,1-.55,1,1.23,1.23,0,0,1-1,.37,1.09,1.09,0,0,1-.62-.19,1,1,0,0,1-.3-.42,1.91,1.91,0,0,1-.1-.54c0-.19,0-.37,0-.53a4.77,4.77,0,0,0-.2-1.79,2.47,2.47,0,0,0-.76-1.13,3.25,3.25,0,0,0-1.28-.61,9.77,9.77,0,0,0-1.76-.23,5.25,5.25,0,0,0-1.51.19,9.81,9.81,0,0,0-1.66.6,11.29,11.29,0,0,0-1.65.94,9.14,9.14,0,0,0-1.45,1.23,6.64,6.64,0,0,0-1,1.45,3.73,3.73,0,0,0-.44,1.59,2.12,2.12,0,0,0,.57,1.63,5.19,5.19,0,0,0,1.67,1.15,14.12,14.12,0,0,0,2.36.82c.89.23,1.79.44,2.71.64.74.17,1.49.36,2.24.57a18.52,18.52,0,0,1,2.14.73,11,11,0,0,1,1.87,1,6.38,6.38,0,0,1,1.49,1.28,5.29,5.29,0,0,1,.95,1.67,5.49,5.49,0,0,1,.27,2.12,5.34,5.34,0,0,1-.76,2.57,7.57,7.57,0,0,1-1.76,2,10.83,10.83,0,0,1-2.38,1.41,16.39,16.39,0,0,1-2.62.92,17.93,17.93,0,0,1-2.5.48,13.55,13.55,0,0,1-2,.1q-.63,0-1.41-.12a11,11,0,0,1-1.58-.3,8.46,8.46,0,0,1-1.55-.57,5,5,0,0,1-1.33-.92,3.88,3.88,0,0,1-.91-1.35A4.28,4.28,0,0,1,779.52,839.43Z" transform="translate(-466.36 -694.72)"/>
      <path class="cls-1" d="M803.28,843.14a3.71,3.71,0,0,1,.31-1.35,10.62,10.62,0,0,1,.58-1.17s.08-.13.14-.25.19-.35.37-.72.43-.92.76-1.66.76-1.76,1.31-3.07c0-.17,0-.32,0-.47s0-.3,0-.43a3.4,3.4,0,0,1,.34-1.41,3,3,0,0,1,1.09-1.09l5.64-10.61c.22-.42.47-.86.73-1.33a9.77,9.77,0,0,1,.88-1.32,5.51,5.51,0,0,1,1.06-1,2,2,0,0,1,1.24-.36,1.71,1.71,0,0,1,1.1.65,10.23,10.23,0,0,1,1.21,1.6c.4.66.81,1.38,1.21,2.16s.76,1.56,1.1,2.29.63,1.41.88,2,.44,1,.55,1.32c.59,1.56,1,2.74,1.34,3.55a7.54,7.54,0,0,0,.71,1.56,3.29,3.29,0,0,1,1.23,1.43,4.88,4.88,0,0,1,.26,2.07c.33,1,.63,2,.88,3a25.87,25.87,0,0,0,.87,2.73,8,8,0,0,0,.76,1.52c.26.4.49.78.7,1.14A5.68,5.68,0,0,1,831,845a4.19,4.19,0,0,1,.14,1.45,1.32,1.32,0,0,1-.32.9,1.77,1.77,0,0,1-.7.44,2.54,2.54,0,0,1-.8.14h-.65a1.69,1.69,0,0,1-1.22-.77,9.69,9.69,0,0,1-1.08-1.75,16.28,16.28,0,0,1-.86-2.08,14.49,14.49,0,0,1-.52-1.74c-.12-.51-.25-1.05-.37-1.61s-.26-1.09-.38-1.58a11.17,11.17,0,0,0-.4-1.26,1.38,1.38,0,0,0-.42-.65,1.6,1.6,0,0,0-.71-.41,5.15,5.15,0,0,0-1.06-.14l-2.32-.11-2.4-.12-2.55-.13-2.79-.13a2.52,2.52,0,0,0-.66.05,1,1,0,0,0-.48.3,3.44,3.44,0,0,0-.46.73c-.15.32-.34.76-.56,1.33l-1.82,4.32c-.14.43-.28.83-.4,1.2a3.87,3.87,0,0,1-.34.78,1.72,1.72,0,0,1-.42.46,1.47,1.47,0,0,1-.44.24,1.49,1.49,0,0,1-.47.07h-.49a2.26,2.26,0,0,1-1.35-.42A1.51,1.51,0,0,1,803.28,843.14Zm8.91-11.41,3.15.18,2,.12,1.23.09.78,0h1.67l1,0a21.43,21.43,0,0,0-.76-2.1c-.34-.85-.72-1.73-1.12-2.64s-.82-1.8-1.22-2.66-.74-1.6-1-2.2-.45-.79-.61-.8-.25.19-.5.58-.53.9-.87,1.51-.68,1.31-1.06,2.08l-1.08,2.25c-.36.74-.67,1.43-1,2.06S812.33,831.37,812.19,831.73Z" transform="translate(-466.36 -694.72)"/>
      <path class="cls-1" d="M837.2,841.89a2.55,2.55,0,0,1,.27-.88,4.11,4.11,0,0,1,.61-1,1.61,1.61,0,0,1,.78-.56c.28-.08.54,0,.78.4a12.87,12.87,0,0,0,1.13,2,4.22,4.22,0,0,0,1.11,1.09,3.41,3.41,0,0,0,1.32.47,15.24,15.24,0,0,0,1.76.16,8.37,8.37,0,0,0,2.58-.32,11.84,11.84,0,0,0,2.44-1,7.92,7.92,0,0,0,1.84-1.36,2.28,2.28,0,0,0,.75-1.42,1.47,1.47,0,0,0-.38-1,4.57,4.57,0,0,0-1.11-1,11.85,11.85,0,0,0-1.68-.91,15.77,15.77,0,0,0-2.07-.74c-.84-.16-1.7-.34-2.58-.53s-1.74-.42-2.57-.68a15.45,15.45,0,0,1-2.34-1,8.36,8.36,0,0,1-1.9-1.33,5.36,5.36,0,0,1-1.24-1.81,5.28,5.28,0,0,1-.37-2.42,9,9,0,0,1,.62-2.94,9.75,9.75,0,0,1,1.44-2.44,10.69,10.69,0,0,1,2.06-1.91,12.57,12.57,0,0,1,2.5-1.35,13.74,13.74,0,0,1,2.75-.79,13.33,13.33,0,0,1,2.81-.19,8.18,8.18,0,0,1,2.61.52,6.48,6.48,0,0,1,2,1.19,5.24,5.24,0,0,1,1.21,1.64,4.08,4.08,0,0,1,.36,1.87c0,.34,0,.73-.08,1.16a4.79,4.79,0,0,1-.24,1.23,2.49,2.49,0,0,1-.55,1,1.22,1.22,0,0,1-1,.37,1,1,0,0,1-.61-.19,1,1,0,0,1-.31-.42,1.61,1.61,0,0,1-.09-.54c0-.19,0-.37,0-.53a4.79,4.79,0,0,0-.19-1.79,2.48,2.48,0,0,0-.77-1.13,3.25,3.25,0,0,0-1.28-.61,9.65,9.65,0,0,0-1.76-.23,5.11,5.11,0,0,0-1.5.18,10.94,10.94,0,0,0-1.67.61,12.44,12.44,0,0,0-1.65.94,8.64,8.64,0,0,0-1.44,1.23,6.46,6.46,0,0,0-1,1.45A3.73,3.73,0,0,0,840,828a2.14,2.14,0,0,0,.58,1.63,5.14,5.14,0,0,0,1.66,1.15,15.08,15.08,0,0,0,2.36.82c.89.22,1.79.44,2.71.64q1.13.25,2.25.57a18.35,18.35,0,0,1,2.13.73,11.06,11.06,0,0,1,1.88,1,6.32,6.32,0,0,1,1.48,1.28,5.29,5.29,0,0,1,1,1.67,5.49,5.49,0,0,1,.27,2.12,5.26,5.26,0,0,1-.76,2.57,7.39,7.39,0,0,1-1.76,2,11,11,0,0,1-2.38,1.41,17.05,17.05,0,0,1-2.62.92,17.39,17.39,0,0,1-2.5.48,13.49,13.49,0,0,1-2,.1q-.63,0-1.41-.12a12.9,12.9,0,0,1-1.58-.3,8.74,8.74,0,0,1-1.55-.57,5.17,5.17,0,0,1-1.33-.92,3.72,3.72,0,0,1-.9-1.35A4.3,4.3,0,0,1,837.2,841.89Z" transform="translate(-466.36 -694.72)"/>
      <path class="cls-1" d="M863,843a2.72,2.72,0,0,1,.26-.88,4.14,4.14,0,0,1,.62-1,1.61,1.61,0,0,1,.78-.56c.28-.08.54.05.78.4a12.08,12.08,0,0,0,1.13,2,3.94,3.94,0,0,0,1.11,1.09,3.41,3.41,0,0,0,1.32.47,15,15,0,0,0,1.76.16,8.37,8.37,0,0,0,2.58-.32,11.84,11.84,0,0,0,2.44-1A7.65,7.65,0,0,0,877.6,842a2.3,2.3,0,0,0,.76-1.42,1.52,1.52,0,0,0-.38-1,5,5,0,0,0-1.11-1,11.46,11.46,0,0,0-1.69-.91,15.12,15.12,0,0,0-2.06-.74c-.84-.16-1.7-.34-2.58-.53s-1.74-.42-2.58-.69a14.72,14.72,0,0,1-2.33-.94,8.36,8.36,0,0,1-1.9-1.33,5.39,5.39,0,0,1-1.25-1.81,5.56,5.56,0,0,1-.37-2.42,8.76,8.76,0,0,1,.63-2.94,9.75,9.75,0,0,1,1.44-2.44,10.41,10.41,0,0,1,2.06-1.91,12.34,12.34,0,0,1,2.5-1.36,13.71,13.71,0,0,1,2.75-.78,13.28,13.28,0,0,1,2.8-.19,8.07,8.07,0,0,1,2.61.52,6.41,6.41,0,0,1,2,1.19,5.06,5.06,0,0,1,1.2,1.64,4,4,0,0,1,.37,1.87c0,.34,0,.73-.08,1.16a4.79,4.79,0,0,1-.24,1.23,2.62,2.62,0,0,1-.55,1,1.26,1.26,0,0,1-1,.37,1.09,1.09,0,0,1-.62-.19,1,1,0,0,1-.3-.43,1.51,1.51,0,0,1-.09-.53,4.68,4.68,0,0,1,0-.53,4.55,4.55,0,0,0-.2-1.79,2.47,2.47,0,0,0-.76-1.13,3.11,3.11,0,0,0-1.28-.61,9.77,9.77,0,0,0-1.76-.23,5.21,5.21,0,0,0-1.51.18,9.87,9.87,0,0,0-1.66.61,11.29,11.29,0,0,0-1.65.94,9.14,9.14,0,0,0-1.45,1.23,6.41,6.41,0,0,0-1,1.45,3.69,3.69,0,0,0-.44,1.59,2.17,2.17,0,0,0,.57,1.63,5.19,5.19,0,0,0,1.67,1.15,14.13,14.13,0,0,0,2.36.81c.89.23,1.79.45,2.71.65.74.17,1.49.36,2.24.57a18.52,18.52,0,0,1,2.14.73,11,11,0,0,1,1.87,1,6.38,6.38,0,0,1,1.49,1.28,5.29,5.29,0,0,1,.95,1.67,5.49,5.49,0,0,1,.27,2.12,5.3,5.3,0,0,1-.76,2.56,7.45,7.45,0,0,1-1.76,2,11.67,11.67,0,0,1-2.38,1.41,17.43,17.43,0,0,1-2.62.92,17.65,17.65,0,0,1-2.5.48,13.55,13.55,0,0,1-2,.1q-.63,0-1.41-.12a13,13,0,0,1-1.58-.31,7.76,7.76,0,0,1-1.55-.56,5,5,0,0,1-1.33-.92,3.88,3.88,0,0,1-.91-1.35A4.3,4.3,0,0,1,863,843Z" transform="translate(-466.36 -694.72)"/>
    </g>
    <g id="mysql">
      <path class="cls-1" d="M755.9,760.29a3.66,3.66,0,0,1-.11-.76,3.47,3.47,0,0,0-.11-.74c-.59-2.3-1.08-4.23-1.47-5.82s-.7-2.9-.94-4-.44-1.9-.58-2.53-.26-1.14-.36-1.52a7.71,7.71,0,0,1-.22-1.39,5.49,5.49,0,0,1,.07-1.24,2.45,2.45,0,0,1,.36-.93,1.1,1.1,0,0,1,.65-.48,1,1,0,0,1,.63,0,1.55,1.55,0,0,1,.53.3,2.2,2.2,0,0,1,.4.5,2.44,2.44,0,0,1,.24.59l0,.08a3,3,0,0,1,.24.48,5.25,5.25,0,0,0,.52.84c.27.36.58.76,1,1.2s.77.9,1.19,1.38l1.25,1.4,1.12,1.25.83.92.49.59.62.73.67.76.62.68c.18.2.33.36.46.48s.2.18.23.17a.56.56,0,0,0,.32-.24,3.35,3.35,0,0,0,.31-.46,5.12,5.12,0,0,0,.23-.48,2.24,2.24,0,0,0,.14-.34q.07-.24.18-.54c.06-.2.15-.45.24-.75l.33-1.08c.12-.42.27-.93.44-1.54s.39-1.3.63-2,.48-1.45.71-2.19.47-1.47.67-2.19a19.24,19.24,0,0,0,.48-2c0-.21.06-.43.09-.68a4.54,4.54,0,0,1,.13-.72,5.54,5.54,0,0,1,.07-.57,2.35,2.35,0,0,1,.17-.49,1.45,1.45,0,0,1,.3-.39,1.21,1.21,0,0,1,.48-.25,1.63,1.63,0,0,1,2.14,1.28c.82,3.16,1.59,6.37,2.33,9.65s1.54,6.56,2.39,9.87a.85.85,0,0,1,0,.55,1.26,1.26,0,0,1-.26.4,1.92,1.92,0,0,1-.34.26l-.27.12-.4,0a3.29,3.29,0,0,1-.79-.07,2.3,2.3,0,0,1-.85-.34,1.24,1.24,0,0,1-.54-.8,3,3,0,0,1-.11-.8c0-.29,0-.57,0-.85l0-.84a5.19,5.19,0,0,0-.06-.8l-2-7.92c-.1-.39-.21-.79-.33-1.22s-.23-.84-.37-1.27a20.66,20.66,0,0,0-.71,2.06c-.22.74-.42,1.49-.63,2.26l-.6,2.31c-.2.77-.41,1.51-.64,2.22a18.77,18.77,0,0,1-.74,2,10.1,10.1,0,0,1-.92,1.67l-.13.19a.92.92,0,0,1-.19.23,2,2,0,0,1-.37.24,3.34,3.34,0,0,1-.64.22,1.23,1.23,0,0,1-.84-.14,6.45,6.45,0,0,1-1.07-.68c-.39-.29-.78-.62-1.19-1s-.78-.75-1.14-1.12-.69-.71-1-1l-.68-.77-3.12-3.68c.12.53.26,1.14.42,1.81s.36,1.45.58,2.31l1.46,5.68a5.6,5.6,0,0,0,.36.66,2.84,2.84,0,0,1,.32.72,4.68,4.68,0,0,1,.16,1.75,1,1,0,0,1-.81.89,2.44,2.44,0,0,1-1.14.08,1.3,1.3,0,0,1-.73-.41,2.41,2.41,0,0,1-.45-.79C756.11,761,756,760.67,755.9,760.29Z" transform="translate(-466.36 -694.72)"/>
      <path class="cls-1" d="M786.9,753.05c-.39-.41-.84-.9-1.36-1.48s-1-1.18-1.6-1.83-1.12-1.29-1.68-2l-1.6-1.9-1.36-1.63c-.41-.48-.73-.87-1-1.17a6.11,6.11,0,0,1-.61-.83,2,2,0,0,1-.26-.56,1.66,1.66,0,0,1,0-.73,1.7,1.7,0,0,1,.24-.64,1.57,1.57,0,0,1,.46-.5,1.74,1.74,0,0,1,.61-.3,1,1,0,0,1,.54,0,1,1,0,0,1,.4.22,2,2,0,0,1,.33.37,4.22,4.22,0,0,0,.34.47c.38.51.8,1.05,1.25,1.62s.92,1.15,1.39,1.74l1.43,1.74,1.34,1.62c.42.5.81,1,1.17,1.37s.65.76.88,1l3.38-12.49a3.7,3.7,0,0,1,.9-1.58,3,3,0,0,1,1.41-.87.77.77,0,0,1,.4,0,1,1,0,0,1,.36.19,1.32,1.32,0,0,1,.28.3,1.55,1.55,0,0,1,.15.33,1.27,1.27,0,0,1,.05.46,3.42,3.42,0,0,1-.15.56c-.08.23-.2.54-.36.92s-.35.91-.58,1.57-.51,1.49-.83,2.49-.69,2.22-1.09,3.67l-2,8.21c-.19.68-.37,1.43-.53,2.24s-.3,1.6-.41,2.36-.18,1.46-.21,2.09a5.23,5.23,0,0,0,.09,1.44,2.28,2.28,0,0,1,.06.65,2.5,2.5,0,0,1-.14.67,1.79,1.79,0,0,1-.33.55,1.06,1.06,0,0,1-.52.33,1.81,1.81,0,0,1-.66,0,3.26,3.26,0,0,1-.78-.22,3.16,3.16,0,0,1-.7-.39,1,1,0,0,1-.38-.52,4.28,4.28,0,0,1-.1-1,13.43,13.43,0,0,1,.1-1.46c.06-.53.15-1.08.27-1.66s.27-1.15.43-1.69Z" transform="translate(-466.36 -694.72)"/>
      <path class="cls-1" d="M801.15,747.63a2.12,2.12,0,0,1,0-.72,3.31,3.31,0,0,1,.23-.9,1.41,1.41,0,0,1,.46-.61c.2-.13.42-.08.69.13a10.44,10.44,0,0,0,1.32,1.22,3,3,0,0,0,1.09.56,2.75,2.75,0,0,0,1.11.05,10.64,10.64,0,0,0,1.37-.29,6.89,6.89,0,0,0,1.89-.85,9.7,9.7,0,0,0,1.62-1.32,6.25,6.25,0,0,0,1.07-1.46,1.82,1.82,0,0,0,.24-1.26,1.2,1.2,0,0,0-.52-.66,3.74,3.74,0,0,0-1.08-.49,9.32,9.32,0,0,0-1.49-.3,12.41,12.41,0,0,0-1.74-.07c-.68.08-1.37.14-2.08.2s-1.42.09-2.11.09a11.73,11.73,0,0,1-2-.17,6.52,6.52,0,0,1-1.75-.56,4.31,4.31,0,0,1-1.37-1.07,4.4,4.4,0,0,1-.84-1.75A7,7,0,0,1,797,735a7.55,7.55,0,0,1,.52-2.18,8.33,8.33,0,0,1,1.11-1.94,10.46,10.46,0,0,1,1.58-1.61,10.34,10.34,0,0,1,1.9-1.24,10.18,10.18,0,0,1,2.08-.81,6.51,6.51,0,0,1,2.1-.22,5,5,0,0,1,1.76.44,4.11,4.11,0,0,1,1.3,1,3.27,3.27,0,0,1,.72,1.33l.21.9a4.29,4.29,0,0,1,.11,1,2.22,2.22,0,0,1-.19.87,1,1,0,0,1-.7.51.81.81,0,0,1-.51,0,.9.9,0,0,1-.33-.25,1.59,1.59,0,0,1-.2-.39c0-.14-.08-.28-.12-.4a3.63,3.63,0,0,0-.57-1.31A2,2,0,0,0,807,730a2.67,2.67,0,0,0-1.12-.16,7.1,7.1,0,0,0-1.38.25,3.88,3.88,0,0,0-1.1.49,7.7,7.7,0,0,0-1.12.85,9,9,0,0,0-1,1.1,7.55,7.55,0,0,0-.81,1.27,5.33,5.33,0,0,0-.44,1.35,3,3,0,0,0,0,1.3,1.66,1.66,0,0,0,.82,1.1,4,4,0,0,0,1.53.48,10.59,10.59,0,0,0,2,.06c.73,0,1.46-.08,2.21-.14s1.21-.08,1.83-.1a15,15,0,0,1,1.79,0,8.75,8.75,0,0,1,1.65.28,5.19,5.19,0,0,1,1.42.62,4.22,4.22,0,0,1,1.11,1,4.43,4.43,0,0,1,.71,1.55,4.12,4.12,0,0,1,0,2.12,5.74,5.74,0,0,1-.87,1.9,9,9,0,0,1-1.47,1.63,15,15,0,0,1-1.77,1.32,16.47,16.47,0,0,1-1.79.95,11.2,11.2,0,0,1-1.48.54c-.32.08-.69.16-1.1.24a10.28,10.28,0,0,1-1.27.14,7.19,7.19,0,0,1-1.31-.06,4.23,4.23,0,0,1-1.22-.38,3.37,3.37,0,0,1-1-.81A3.4,3.4,0,0,1,801.15,747.63Z" transform="translate(-466.36 -694.72)"/>
      <path class="cls-1" d="M817.64,734.91a10.44,10.44,0,0,1-.35-3.06,10.73,10.73,0,0,1,1.65-5.45,11.63,11.63,0,0,1,1.78-2.17,12.08,12.08,0,0,1,2.27-1.67,10.86,10.86,0,0,1,2.62-1.07,9.08,9.08,0,0,1,3-.29,11.47,11.47,0,0,1,2.94.6,12.64,12.64,0,0,1,2.73,1.3,12.93,12.93,0,0,1,2.34,1.84,12,12,0,0,1,1.8,2.25,8.73,8.73,0,0,1,1.07,2.47,13.47,13.47,0,0,1,.48,4.39,10.63,10.63,0,0,1-.85,3.57c.43.27.85.55,1.25.84s.76.56,1.08.82a6.44,6.44,0,0,1,.79.75,1.62,1.62,0,0,1,.39.64,1.1,1.1,0,0,1-.12.89,1.32,1.32,0,0,1-.86.57,3.65,3.65,0,0,1-.5.1,4.18,4.18,0,0,1-.61,0,4.09,4.09,0,0,1-.6-.07.84.84,0,0,1-.45-.26l-.67-.56c-.37-.32-.85-.7-1.44-1.15a11.45,11.45,0,0,1-2.86,2.22,15.35,15.35,0,0,1-3.42,1.36,11.62,11.62,0,0,1-4.59.35,9,9,0,0,1-3.87-1.44,10.5,10.5,0,0,1-3-3.13A15.81,15.81,0,0,1,817.64,734.91Zm3-.31a11.27,11.27,0,0,0,1.47,3.41,8.21,8.21,0,0,0,2.21,2.29,6.76,6.76,0,0,0,2.73,1.1,7.16,7.16,0,0,0,3-.17,12.08,12.08,0,0,0,2.66-1.05,9.9,9.9,0,0,0,2.22-1.66q-1-.72-2.16-1.35a20.76,20.76,0,0,0-2.21-1.11l-.13-.47a2.24,2.24,0,0,1,0-1.14.86.86,0,0,1,.67-.6,2,2,0,0,1,.93,0,8.26,8.26,0,0,1,1.11.34,11.33,11.33,0,0,1,1.06.47c.34.18.61.32.8.44l.7.42.92.53a7.75,7.75,0,0,0,.56-2.38,8.07,8.07,0,0,0-.28-2.74,8.25,8.25,0,0,0-.86-2.08,9.3,9.3,0,0,0-1.39-1.86,11.24,11.24,0,0,0-1.77-1.53,9.5,9.5,0,0,0-2-1.09,7.8,7.8,0,0,0-2.14-.53,6.08,6.08,0,0,0-2.13.17,9.18,9.18,0,0,0-3,1.38,7.92,7.92,0,0,0-2.16,2.31,8.11,8.11,0,0,0-1.09,3.11A9.71,9.71,0,0,0,820.6,734.6Z" transform="translate(-466.36 -694.72)"/>
      <path class="cls-1" d="M847.52,738a2.93,2.93,0,0,1-.12-.79c0-.17,0-.29,0-.37-.12-.44-.21-.8-.28-1.09s-.12-.52-.15-.7a4,4,0,0,1-.08-.48l-.06-.39q0-.18-.09-.42c0-.15-.08-.35-.14-.61-.24-.92-.51-1.84-.8-2.76s-.6-1.86-.91-2.8-.63-1.89-.93-2.86-.58-1.93-.84-2.93c-.21-.83-.38-1.52-.51-2.09a6.41,6.41,0,0,1-.2-1.38,1.37,1.37,0,0,1,.19-.82,1.13,1.13,0,0,1,.67-.42,1.38,1.38,0,0,1,.64,0,1.69,1.69,0,0,1,.61.24,2.1,2.1,0,0,1,.51.48,1.83,1.83,0,0,1,.3.63c.11.42.21.85.3,1.28s.18.85.29,1.25c.29,1.12.59,2.24.92,3.35s.66,2.23,1,3.36l1,3.45c.34,1.17.68,2.36,1,3.58.05.18.08.28.12.3s.15,0,.36-.06l1.13-.25,1.71-.38,2.21-.53c.81-.19,1.69-.42,2.63-.67a6.37,6.37,0,0,0,1.15-.42,5.72,5.72,0,0,1,1.2-.45,1.19,1.19,0,0,1,.62,0,1.69,1.69,0,0,1,.57.24,1.88,1.88,0,0,1,.45.44,1.5,1.5,0,0,1,.27.57,1.3,1.3,0,0,1,0,.62,2.13,2.13,0,0,1-.27.64,2.16,2.16,0,0,1-.45.54,1.36,1.36,0,0,1-.57.32,3.75,3.75,0,0,1-.8.14l-.74,0a6.51,6.51,0,0,0-2,.27,29.76,29.76,0,0,0-3.08,1,31.68,31.68,0,0,1-3.09,1,6.46,6.46,0,0,1-1.07.18,5.46,5.46,0,0,0-1.11.18l-.3.1a4,4,0,0,1-.41.14,1,1,0,0,1-.55,0C847.75,738.6,847.62,738.4,847.52,738Z" transform="translate(-466.36 -694.72)"/>
    </g>
    <g id="php">
      <path class="cls-1" d="M520.46,783.39a1,1,0,0,1-.15-.54,5.43,5.43,0,0,1,.05-.94c0-.36.11-.75.2-1.19s.17-.86.27-1.3.21-.87.31-1.3l.3-1.17.33-1.29a3.42,3.42,0,0,1-.15-.65,1.41,1.41,0,0,1,0-.58.86.86,0,0,1,.11-.24,1.12,1.12,0,0,1,.16-.22,2.57,2.57,0,0,1,.21-.24c.3-1,.55-1.85.73-2.48s.33-1.15.45-1.55.2-.72.26-1l.19-.76c.11-.43.23-.87.37-1.3a8.51,8.51,0,0,1,.48-1.25,5.72,5.72,0,0,1,.68-1.09,3.13,3.13,0,0,1,1-.82.8.8,0,0,1,.41-.1,1.83,1.83,0,0,1,.48,0,1.34,1.34,0,0,1,.63.37,4.34,4.34,0,0,0,.81-.09,8.73,8.73,0,0,1,1.06-.17,9.44,9.44,0,0,1,1.35-.06,7.63,7.63,0,0,1,1.7.27c2.72.7,4.63,1.7,5.75,3a4.94,4.94,0,0,1,1,4.7,9.55,9.55,0,0,1-.79,2.16,8.09,8.09,0,0,1-.91,1.4,4.34,4.34,0,0,1-.84.8l-.56.38a5.24,5.24,0,0,1-1.12.47,10.74,10.74,0,0,1-1.53.37c-.56.1-1.17.18-1.82.24s-1.31.1-2,.11-1.32,0-2,0a13.9,13.9,0,0,1-1.82-.23,4,4,0,0,1-.49-.13l-.51-.18-.55-.23c-.14.7-.24,1.34-.32,1.92s-.14,1.14-.21,1.68-.14,1.07-.22,1.6-.2,1.1-.35,1.71a.87.87,0,0,1-.28.47,1,1,0,0,1-.43.19,1.68,1.68,0,0,1-.5,0,2.88,2.88,0,0,1-.46-.09,3.74,3.74,0,0,1-.66-.25A1.77,1.77,0,0,1,520.46,783.39Zm4.76-10c.24.09.46.18.65.27l.58.26.55.25a3.3,3.3,0,0,0,.58.2,6,6,0,0,0,1,.18c.41,0,.84.08,1.31.1s.93,0,1.4,0,.92-.05,1.35-.1a10,10,0,0,0,1.13-.18,2.44,2.44,0,0,0,.75-.29,5.54,5.54,0,0,0,1.11-1,3.75,3.75,0,0,0,.75-1.49,4.49,4.49,0,0,0,.13-1.72,3,3,0,0,0-.6-1.43,4.45,4.45,0,0,0-1.4-1.16,10.39,10.39,0,0,0-2.3-.86c-.39-.1-.8-.19-1.23-.26a8,8,0,0,0-1.26-.11,4.1,4.1,0,0,0-1.09.15,1.25,1.25,0,0,0-.73.48l-.12.21a1.85,1.85,0,0,1-.25.37,1.76,1.76,0,0,1-.39.38,1.32,1.32,0,0,1-.52.25c-.06.15-.13.35-.21.59s-.15.49-.22.75-.15.53-.22.8-.14.5-.19.71-.1.41-.16.65-.11.49-.17.73-.11.48-.16.71Z" transform="translate(-466.36 -694.72)"/>
      <path class="cls-1" d="M540.26,787.31l.72-2.85c.21-.89.42-1.75.62-2.59s.41-1.7.62-2.57.43-1.81.67-2.81.52-2.11.81-3.31.63-2.54,1-4a4.22,4.22,0,0,1,.19-.61,2.31,2.31,0,0,1,.33-.58,1.33,1.33,0,0,1,.52-.38,1.15,1.15,0,0,1,.76,0,.9.9,0,0,1,.45.3,2.31,2.31,0,0,1,.36.57,3.8,3.8,0,0,1,.21.7,1.64,1.64,0,0,1,0,.7l-1.74,7.09c0,.2,0,.32.17.37l4.39,1.14,2.95.77,1.8.47.95.24a1.64,1.64,0,0,0,.4.08.34.34,0,0,0,.15,0c.29-1.24.56-2.48.82-3.7s.53-2.46.85-3.7a4.24,4.24,0,0,1,.26-.76,1.94,1.94,0,0,1,.38-.59,1.16,1.16,0,0,1,.52-.33,1.31,1.31,0,0,1,.68,0,1.27,1.27,0,0,1,.73.44,1.43,1.43,0,0,1,.29.72,3,3,0,0,1,0,.89,9.59,9.59,0,0,1-.19,1c-.09.36-.19.76-.29,1.2s-.22.94-.33,1.49-.25,1.16-.4,1.83-.3,1.4-.47,2.21c0,.07,0,.16.05.28a2.22,2.22,0,0,1,0,.38v.4a1.53,1.53,0,0,1,0,.34,2,2,0,0,1-.13.35l-.17.38c-.08.14-.15.28-.22.43-.3,1.4-.54,2.58-.75,3.55s-.37,1.78-.52,2.43l-.33,1.51c-.08.37-.15.64-.2.83a1.62,1.62,0,0,1-.68,1,1.43,1.43,0,0,1-1.2.19,1.29,1.29,0,0,1-1-.79,3.54,3.54,0,0,1,.11-1.92l1.71-7.1-.32-.09-.72-.17-1.26-.31-1.95-.49-2.79-.71c-1.08-.27-2.35-.59-3.79-1q-.07,0-.21.12a.9.9,0,0,0-.17.32c-.3,1.18-.57,2.42-.82,3.75s-.54,2.62-.86,3.88a.7.7,0,0,1-.28.39,2.13,2.13,0,0,1-.5.25,2.29,2.29,0,0,1-.58.11,1.66,1.66,0,0,1-.52,0,1.43,1.43,0,0,1-.44-.2,1.47,1.47,0,0,1-.39-.36,1.44,1.44,0,0,1-.24-.48A1,1,0,0,1,540.26,787.31Z" transform="translate(-466.36 -694.72)"/>
      <path class="cls-1" d="M563.5,794.53a1,1,0,0,1-.15-.54,5.43,5.43,0,0,1,0-.94c.05-.36.11-.76.2-1.19s.17-.86.27-1.3.21-.87.32-1.3l.29-1.17.33-1.29a3.42,3.42,0,0,1-.15-.65,1.41,1.41,0,0,1,0-.58,1.28,1.28,0,0,1,.11-.24,1.6,1.6,0,0,1,.16-.23l.21-.23c.31-1,.55-1.85.73-2.48s.33-1.15.45-1.55.2-.72.26-1l.2-.76c.11-.43.23-.87.36-1.3a8.51,8.51,0,0,1,.48-1.25,5.72,5.72,0,0,1,.68-1.09,3.26,3.26,0,0,1,1-.82.8.8,0,0,1,.41-.11,1.77,1.77,0,0,1,.48.05,1.34,1.34,0,0,1,.63.37,3.71,3.71,0,0,0,.81-.1c.31-.06.66-.12,1.06-.17a11.31,11.31,0,0,1,1.35-.05,7.09,7.09,0,0,1,1.7.27q4.08,1.05,5.75,3a4.94,4.94,0,0,1,1,4.7,9.74,9.74,0,0,1-.79,2.16,8.09,8.09,0,0,1-.91,1.4,4.67,4.67,0,0,1-.84.8l-.56.38a5.24,5.24,0,0,1-1.12.47,10.74,10.74,0,0,1-1.53.37c-.56.1-1.17.18-1.82.24s-1.3.1-2,.11-1.32,0-2,0a12.34,12.34,0,0,1-1.82-.24,2.67,2.67,0,0,1-.49-.12l-.51-.18-.55-.23c-.14.7-.24,1.34-.32,1.92s-.14,1.14-.21,1.68-.14,1.07-.22,1.6-.2,1.1-.35,1.71a.82.82,0,0,1-.28.47,1,1,0,0,1-.43.19,1.68,1.68,0,0,1-.5,0,2.55,2.55,0,0,1-.45-.09,3.53,3.53,0,0,1-.67-.25A1.88,1.88,0,0,1,563.5,794.53Zm4.76-10,.66.27.57.26.55.25a3.3,3.3,0,0,0,.58.2,6.17,6.17,0,0,0,1,.18c.41,0,.84.08,1.31.09s.93,0,1.4,0,.92-.05,1.35-.1.8-.11,1.13-.18a2.49,2.49,0,0,0,.75-.29,5.54,5.54,0,0,0,1.11-1,3.75,3.75,0,0,0,.75-1.49,4.71,4.71,0,0,0,.14-1.72,3,3,0,0,0-.6-1.44,4.62,4.62,0,0,0-1.41-1.15,10.29,10.29,0,0,0-2.29-.86c-.4-.1-.81-.19-1.24-.26a8,8,0,0,0-1.26-.11,3.73,3.73,0,0,0-1.09.15,1.25,1.25,0,0,0-.73.48s-.06.1-.12.21a2.19,2.19,0,0,1-.25.37,2,2,0,0,1-.38.38,1.44,1.44,0,0,1-.53.25c-.06.15-.13.35-.21.58s-.15.49-.22.76-.15.53-.22.8-.14.5-.19.71-.1.41-.16.65-.11.49-.17.73-.11.48-.15.7S568.29,784.4,568.26,784.57Z" transform="translate(-466.36 -694.72)"/>
    </g>
    <g id="ajax">
      <path class="cls-1" d="M771.75,872.89a1.88,1.88,0,0,1,.31-.67,5.83,5.83,0,0,1,.43-.53.77.77,0,0,1,.1-.12,4,4,0,0,0,.27-.33c.14-.17.33-.42.58-.77s.59-.82,1-1.44c0-.08,0-.17,0-.24s0-.15,0-.23a1.86,1.86,0,0,1,.34-.69,1.61,1.61,0,0,1,.69-.43l4.11-4.84.52-.6a5.58,5.58,0,0,1,.61-.58,2.49,2.49,0,0,1,.66-.39,1.06,1.06,0,0,1,.68,0,1,1,0,0,1,.5.47,5,5,0,0,1,.44,1c.14.39.27.81.39,1.27s.22.9.32,1.32.16.81.23,1.15.11.6.13.75q.21,1.32.3,2a3.71,3.71,0,0,0,.2.89,1.79,1.79,0,0,1,.47.9,2.56,2.56,0,0,1-.09,1.1c.06.55.1,1.1.12,1.64s.08,1,.15,1.52a4.89,4.89,0,0,0,.22.88c.09.24.17.47.24.68a2.83,2.83,0,0,1,.13.63,2.25,2.25,0,0,1-.09.77.67.67,0,0,1-.27.43.84.84,0,0,1-.41.14,1.25,1.25,0,0,1-.43,0l-.33-.08a.92.92,0,0,1-.55-.55,5.26,5.26,0,0,1-.37-1,11.65,11.65,0,0,1-.21-1.18,8,8,0,0,1-.07-1c0-.28,0-.57,0-.88s0-.6,0-.87a6.32,6.32,0,0,0-.06-.7.72.72,0,0,0-.15-.39.81.81,0,0,0-.32-.29,2.58,2.58,0,0,0-.53-.2L780.9,871l-1.23-.35-1.31-.37-1.43-.41a1.82,1.82,0,0,0-.35,0,.46.46,0,0,0-.28.1,1.37,1.37,0,0,0-.32.32c-.12.15-.27.36-.44.62l-1.43,2-.34.58a2.12,2.12,0,0,1-.26.36.89.89,0,0,1-.27.19.92.92,0,0,1-.26.07.71.71,0,0,1-.25,0l-.25-.06a1.31,1.31,0,0,1-.66-.38A.81.81,0,0,1,771.75,872.89Zm5.89-4.86,1.62.47,1,.31.63.19.4.12.24.06.27.06.35.08.51.11c0-.31-.08-.7-.16-1.18s-.18-1-.29-1.51-.22-1-.34-1.53-.2-.92-.27-1.26-.14-.47-.23-.49-.15.07-.32.24-.38.4-.62.68-.5.6-.78,1l-.82,1-.72,1C777.92,867.63,777.75,867.86,777.64,868Z" transform="translate(-466.36 -694.72)"/>
      <path class="cls-1" d="M788,876.79a1.29,1.29,0,0,1,.17-.36,1.39,1.39,0,0,1,.32-.32,1.18,1.18,0,0,1,.41-.19,1.1,1.1,0,0,1,.51,0,.75.75,0,0,1,.3.18,1.61,1.61,0,0,1,.21.3l.17.34a1.26,1.26,0,0,0,.18.3.65.65,0,0,0,.17.15l.24.12.24.1.2.06a3.78,3.78,0,0,0,1.31.11,4.38,4.38,0,0,0,1.29-.33,3.35,3.35,0,0,0,1.06-.71,2.18,2.18,0,0,0,.61-1c0-.14.17-.6.41-1.37s.55-1.87.93-3.31c.16-.6.3-1.2.4-1.81s.24-1.22.41-1.83a2.88,2.88,0,0,1,.2-.56,1.4,1.4,0,0,1,.32-.46,1.07,1.07,0,0,1,.44-.28,1,1,0,0,1,.6,0,.62.62,0,0,1,.37.25,1,1,0,0,1,.16.41,1.36,1.36,0,0,1,0,.45,2.39,2.39,0,0,1,0,.36c-.09.31-.17.67-.27,1.07s-.19.84-.3,1.29-.21.94-.33,1.44-.24,1-.38,1.5c-.07.27-.16.57-.26.9s-.2.67-.31,1-.23.67-.35,1-.23.63-.34.9-.22.5-.31.69a2.33,2.33,0,0,1-.24.39,6,6,0,0,1-6.23,1.66,4.74,4.74,0,0,1-.76-.29,3.37,3.37,0,0,1-.83-.51,2.44,2.44,0,0,1-.61-.72A1.28,1.28,0,0,1,788,876.79Z" transform="translate(-466.36 -694.72)"/>
      <path class="cls-1" d="M799.11,880.47a2.06,2.06,0,0,1,.31-.67c.14-.2.29-.37.43-.54l.1-.11.28-.33.57-.77,1-1.44c0-.09,0-.17,0-.25l.06-.22a1.85,1.85,0,0,1,.33-.69A1.64,1.64,0,0,1,803,875l4.11-4.84.53-.6a4.66,4.66,0,0,1,.6-.58,2.49,2.49,0,0,1,.66-.39,1.09,1.09,0,0,1,.69,0,.94.94,0,0,1,.49.47,5.33,5.33,0,0,1,.45,1c.14.39.26.81.38,1.27s.23.89.32,1.32.17.8.23,1.15.11.6.14.75l.3,2a4,4,0,0,0,.19.89,1.75,1.75,0,0,1,.48.89,2.62,2.62,0,0,1-.1,1.11c.07.55.11,1.1.13,1.64a13.81,13.81,0,0,0,.14,1.52,4.83,4.83,0,0,0,.23.88c.09.24.17.47.23.67a3.07,3.07,0,0,1,.14.64,2.25,2.25,0,0,1-.09.77.8.8,0,0,1-.27.43.87.87,0,0,1-.41.14,1.23,1.23,0,0,1-.43,0l-.34-.08a1,1,0,0,1-.54-.55,5.26,5.26,0,0,1-.37-1,9.78,9.78,0,0,1-.22-1.18c0-.4-.07-.72-.07-1s0-.57,0-.88,0-.6,0-.87a4.47,4.47,0,0,0-.07-.7.74.74,0,0,0-.14-.39.91.91,0,0,0-.32-.3,3.14,3.14,0,0,0-.54-.2l-1.19-.33-1.23-.35-1.31-.38-1.43-.4a1.28,1.28,0,0,0-.35-.06.58.58,0,0,0-.28.11,1.59,1.59,0,0,0-.32.32c-.12.15-.26.36-.44.62l-1.42,2-.35.58a1.87,1.87,0,0,1-.26.36,1.11,1.11,0,0,1-.27.19.84.84,0,0,1-.26.07,1.1,1.1,0,0,1-.25,0l-.25-.07a1.24,1.24,0,0,1-.65-.37A.81.81,0,0,1,799.11,880.47Zm5.9-4.86,1.61.47,1,.31.62.19.41.12.24.06.26.06.36.08.5.11c0-.31-.08-.71-.16-1.19s-.18-1-.29-1.5-.22-1-.33-1.53-.21-.92-.28-1.26-.14-.47-.22-.49-.15.07-.32.24-.38.4-.62.68-.5.6-.78.95-.56.7-.82,1-.51.66-.73,1S805.12,875.44,805,875.61Z" transform="translate(-466.36 -694.72)"/>
      <path class="cls-1" d="M815.89,884.31a1.25,1.25,0,0,1,.19-.3c.12-.16.26-.35.43-.56l.58-.7c.22-.24.43-.49.63-.72s.39-.46.57-.65l.41-.45a2.56,2.56,0,0,0,.22-.26l.3-.39.3-.41c.09-.14.17-.24.23-.33a2.29,2.29,0,0,0,0-.91c-.06-.38-.15-.8-.27-1.27s-.25-1-.4-1.52-.27-1.12-.38-1.7a4.44,4.44,0,0,1-.08-.65,1.92,1.92,0,0,1,0-.6,1.35,1.35,0,0,1,.14-.3,1.74,1.74,0,0,1,.25-.29,1.09,1.09,0,0,1,.31-.18.47.47,0,0,1,.33,0,.86.86,0,0,1,.52.39,2.91,2.91,0,0,1,.36.75,7.45,7.45,0,0,1,.25,1c.07.37.15.75.22,1.15s.15.79.22,1.18a8,8,0,0,0,.29,1.1l.89-.94.88-.92.94-1c.32-.35.67-.73,1.05-1.16l.56-.58c.2-.19.4-.37.6-.53a3.19,3.19,0,0,1,.6-.35.85.85,0,0,1,.56-.05.57.57,0,0,1,.28.18,1,1,0,0,1,.29.63.89.89,0,0,1,0,.33,1.27,1.27,0,0,1-.19.29l-.44.52-.55.62-.57.63-.46.49-.25.25c-.08.06-.23.2-.44.4s-.46.44-.73.71-.55.55-.84.85-.57.58-.81.84-.45.48-.62.67a1.89,1.89,0,0,0-.26.34,1.44,1.44,0,0,0,0,.55c0,.26.08.58.15.94s.16.75.26,1.16.19.82.3,1.21.2.76.3,1.09.19.59.27.79a2.47,2.47,0,0,0,.33.65,5,5,0,0,1,.34.51,1.5,1.5,0,0,1,.2.56,1.93,1.93,0,0,1-.07.79.64.64,0,0,1-.89.5,2.41,2.41,0,0,1-1-.46,2.51,2.51,0,0,1-.61-.75,5.45,5.45,0,0,1-.41-1.06c-.12-.4-.23-.85-.34-1.35-.18-.76-.31-1.37-.41-1.85s-.17-.84-.22-1.08c-.16.18-.33.39-.54.62l-.61.73c-.2.24-.38.48-.55.7a4.09,4.09,0,0,0-.37.59,2.92,2.92,0,0,0-.21.56,2.36,2.36,0,0,1-.2.51.79.79,0,0,1-.35.33,1,1,0,0,1-.65,0,1.18,1.18,0,0,1-.52-.27,1.21,1.21,0,0,1-.32-.43,1.43,1.43,0,0,1-.13-.54A2,2,0,0,1,815.89,884.31Z" transform="translate(-466.36 -694.72)"/>
    </g>
    <g id="node">
      <path class="cls-1" d="M479.88,939.47c-.16-.39-.34-.83-.55-1.32l-.56-1.36c-.26-.64-.53-1.32-.8-2s-.56-1.44-.84-2.18-.58-1.49-.86-2.23-.58-1.48-.87-2.21-.62-1.47-1-2.19-.69-1.49-1-2.33a3.33,3.33,0,0,1-.14-.55,2.72,2.72,0,0,1,0-.7,2,2,0,0,1,.17-.65.88.88,0,0,1,.45-.42,2,2,0,0,1,1.17-.14,2.65,2.65,0,0,1,1,.48,5.18,5.18,0,0,1,.92.9l.87,1.11c.29.39.58.76.87,1.13a6.19,6.19,0,0,0,.91.93l1.86,1.47c.67.53,1.35,1.06,2,1.58l2,1.51c.65.49,1.24.91,1.76,1.28l1.68,1c.54.33,1,.61,1.46.85s.79.42,1.07.55.48.17.57.13,0-.14,0-.38-.15-.56-.27-.94-.25-.8-.4-1.27-.3-.94-.45-1.39-.3-.89-.43-1.29-.24-.72-.33-1l-1.35-3.46-1-2.66c-.3-.78-.58-1.47-.82-2.09l-.7-1.73a13,13,0,0,1-.47-1.35,3.53,3.53,0,0,1-.16-1,1.63,1.63,0,0,1,.22-.79,1.38,1.38,0,0,1,.66-.5,2.56,2.56,0,0,1,.65-.21.93.93,0,0,1,.55,0,1.26,1.26,0,0,1,.48.45,5.81,5.81,0,0,1,.48,1c.42,1,.8,2.06,1.16,3.09s.72,2.07,1.11,3.13q1,2.68,2,5.51c.64,1.88,1.27,3.76,1.91,5.62.14.44.29.9.47,1.39a5.39,5.39,0,0,1,.3,1.42,2.48,2.48,0,0,1-.26,1.29,2.39,2.39,0,0,1-1.26,1,1.07,1.07,0,0,1-.43.09,3,3,0,0,1-.43,0,2.23,2.23,0,0,1-.39-.09,1.2,1.2,0,0,1-.28-.14,37.15,37.15,0,0,1-3.7-1.91c-1.23-.73-2.44-1.49-3.63-2.3s-2.34-1.64-3.46-2.51-2.19-1.71-3.2-2.56c1,2.5,1.79,4.36,2.37,5.6s.9,1.92,1,2c.18.29.39.63.62,1a9.54,9.54,0,0,1,.64,1.32,4.5,4.5,0,0,1,.25.82,2.2,2.2,0,0,1,0,.76,1.33,1.33,0,0,1-.25.63,1.34,1.34,0,0,1-.6.44,2.05,2.05,0,0,1-1,.19,1.36,1.36,0,0,1-.73-.3,2.18,2.18,0,0,1-.53-.65A7.89,7.89,0,0,1,479.88,939.47Z" transform="translate(-466.36 -694.72)"/>
      <path class="cls-1" d="M497.87,925.81a10.12,10.12,0,0,1-.85-4.26,8.15,8.15,0,0,1,.89-3.45,8.31,8.31,0,0,1,2.15-2.61,12,12,0,0,1,2.95-1.75,9.37,9.37,0,0,1,3.58-.76,7.28,7.28,0,0,1,3.21.74,8.67,8.67,0,0,1,2.7,2.16,12.65,12.65,0,0,1,2,3.47,8.55,8.55,0,0,1,.58,2.37A8.81,8.81,0,0,1,515,924a8.52,8.52,0,0,1-.67,2.15,10.05,10.05,0,0,1-1.18,1.9,9.09,9.09,0,0,1-1.61,1.55,8.33,8.33,0,0,1-1.94,1.11,7.27,7.27,0,0,1-2.33.55,9.05,9.05,0,0,1-2.38-.14,10.9,10.9,0,0,1-2.29-.73,11.4,11.4,0,0,1-2-1.2,10.19,10.19,0,0,1-1.64-1.57A6.92,6.92,0,0,1,497.87,925.81Zm2.41-1.43a6.12,6.12,0,0,0,1.37,2,8.21,8.21,0,0,0,2.07,1.51,7,7,0,0,0,2.36.73,4.4,4.4,0,0,0,2.27-.28,6.87,6.87,0,0,0,2-1.29,6.16,6.16,0,0,0,1.41-1.92,6.34,6.34,0,0,0,.56-2.37,6.5,6.5,0,0,0-.5-2.67,8.71,8.71,0,0,0-1.36-2.32,6.3,6.3,0,0,0-1.78-1.52,4.61,4.61,0,0,0-4.13-.28,8.44,8.44,0,0,0-2.18,1.34,7.6,7.6,0,0,0-1.68,1.95,6.17,6.17,0,0,0-.82,2.4A5.24,5.24,0,0,0,500.28,924.38Z" transform="translate(-466.36 -694.72)"/>
      <path class="cls-1" d="M518.55,917.88a9.84,9.84,0,0,1-.63-2.38,9.65,9.65,0,0,1,0-2.46,10.07,10.07,0,0,1,.57-2.41,8.63,8.63,0,0,1,1.23-2.24,9.4,9.4,0,0,1,1.92-1.91,10.88,10.88,0,0,1,2.63-1.47,5.08,5.08,0,0,1,1.47-.33,7.82,7.82,0,0,1,1.53,0,9.41,9.41,0,0,1,1.44.28,7.3,7.3,0,0,1,1.21.46,1.11,1.11,0,0,0-.07-.23c0-.1-.06-.19-.1-.29l-.09-.28-.06-.17-2.25-5.6a1.47,1.47,0,0,1,.92-2.15,1.1,1.1,0,0,1,.6-.09,1.09,1.09,0,0,1,.48.21,1.72,1.72,0,0,1,.37.43,2.77,2.77,0,0,1,.28.54,4.4,4.4,0,0,1,.16.42l.25.65.26.65c.08.22.14.38.19.5l.8,1.8c.33.76.72,1.7,1.17,2.81.37.91.73,1.87,1.1,2.86s.74,2,1.12,3,.76,2.08,1.15,3.1.78,2,1.17,3a3.56,3.56,0,0,1,.33,1.82,1.43,1.43,0,0,1-1,1,1,1,0,0,1-.58.06,1.65,1.65,0,0,1-.58-.22,3.58,3.58,0,0,1-.54-.45,3.41,3.41,0,0,1-.46-.6,3.49,3.49,0,0,1-.72,1.25,8.25,8.25,0,0,1-1.25,1.16,12.35,12.35,0,0,1-1.59,1,15.56,15.56,0,0,1-1.75.84,9.64,9.64,0,0,1-3.54.8,6.86,6.86,0,0,1-3-.62,7.08,7.08,0,0,1-2.39-1.86A10.88,10.88,0,0,1,518.55,917.88Zm2.81-1.13a5.92,5.92,0,0,0,1.3,2,5.32,5.32,0,0,0,1.79,1.2,5.4,5.4,0,0,0,2.08.37,5.75,5.75,0,0,0,2.14-.46,10,10,0,0,0,2.37-1.31,7.83,7.83,0,0,0,1.45-1.41,4.35,4.35,0,0,0,.69-1.3,2.6,2.6,0,0,0,.13-1q-.1-.51-.24-1c-.1-.32-.2-.64-.32-1s-.24-.65-.38-1l-.46-1.13a5.07,5.07,0,0,0-1.17-1.77,6.08,6.08,0,0,0-1.7-1.21,5.53,5.53,0,0,0-1.93-.51,4,4,0,0,0-1.89.29,8,8,0,0,0-2.57,1.63,6.16,6.16,0,0,0-1.9,4.78A8.18,8.18,0,0,0,521.36,916.75Z" transform="translate(-466.36 -694.72)"/>
      <path class="cls-1" d="M539.73,909.51a12.66,12.66,0,0,1-.94-4.12,8.45,8.45,0,0,1,2.77-6.77,12,12,0,0,1,3.71-2.31,8.55,8.55,0,0,1,1.65-.49,8.64,8.64,0,0,1,1.75-.16,8,8,0,0,1,1.75.19,6,6,0,0,1,1.61.59,5.29,5.29,0,0,1,1.34,1,4.75,4.75,0,0,1,.93,1.5,1.42,1.42,0,0,1,.1,1.1,1.81,1.81,0,0,1-.62.75,10.06,10.06,0,0,1-.91.63,11.17,11.17,0,0,0-1.15.85l-8.66,7.23a4.5,4.5,0,0,0,2.71,2,5.42,5.42,0,0,0,1.55.17,8.53,8.53,0,0,0,1.54-.19,14.16,14.16,0,0,0,1.43-.39c.45-.16.85-.31,1.21-.46a7.78,7.78,0,0,0,1.59-.89,15.92,15.92,0,0,0,1.35-1.07c.4-.35.75-.66,1-.94a3,3,0,0,1,.69-.51,1.67,1.67,0,0,1,1.29-.11,1.63,1.63,0,0,1,.82,1,1.13,1.13,0,0,1-.16,1.06,4.65,4.65,0,0,1-1,1.13,13.62,13.62,0,0,1-1.58,1.1c-.6.36-1.2.69-1.79,1l-1.63.78-1.13.49a9.1,9.1,0,0,1-2.15.58,9.7,9.7,0,0,1-2.22,0,8.87,8.87,0,0,1-2.16-.47,8.7,8.7,0,0,1-2-1,7.54,7.54,0,0,1-1.61-1.43A7,7,0,0,1,539.73,909.51Zm2.3-2.32,1.41-1.14,1.67-1.37c.59-.48,1.18-1,1.78-1.48s1.17-1,1.72-1.47,1.06-.93,1.52-1.35.84-.79,1.14-1.11a2.56,2.56,0,0,0-.95-.76,3.09,3.09,0,0,0-1.24-.27,5.89,5.89,0,0,0-1.51.16,11.17,11.17,0,0,0-1.75.58,5.34,5.34,0,0,0-.93.52,7.43,7.43,0,0,0-1,.88,7.82,7.82,0,0,0-1,1.23,6,6,0,0,0-.75,1.55,6.83,6.83,0,0,0-.33,1.87A7.32,7.32,0,0,0,542,907.19Z" transform="translate(-466.36 -694.72)"/>
      <path class="cls-1" d="M562.5,906.85a1.53,1.53,0,0,1-.08-.75,2.64,2.64,0,0,1,.26-.81,3,3,0,0,1,.49-.72,1.79,1.79,0,0,1,.64-.45,4.37,4.37,0,0,1,.75-.23,2.28,2.28,0,0,1,.78,0,1.52,1.52,0,0,1,.71.32,1.73,1.73,0,0,1,.53.77,1.76,1.76,0,0,1-1.12,2.57,4.08,4.08,0,0,1-.74.22,2.69,2.69,0,0,1-.85.06,2.09,2.09,0,0,1-.8-.26A1.34,1.34,0,0,1,562.5,906.85Z" transform="translate(-466.36 -694.72)"/>
      <path class="cls-1" d="M573.46,906q-.09-.27-.27-.87c-.12-.39-.27-.88-.45-1.44s-.4-1.22-.66-1.94-.55-1.5-.88-2.34c-.44-1.09-.85-2.06-1.23-2.9s-.69-1.57-.94-2.18c-.15-.4-.29-.75-.42-1.08s-.24-.62-.36-.92-.23-.57-.34-.86-.22-.58-.35-.9a8.49,8.49,0,0,1-.3-.93,4.32,4.32,0,0,1-.15-1,2,2,0,0,1,.18-.86,1.17,1.17,0,0,1,.65-.58,1.63,1.63,0,0,1,.71-.14,1.41,1.41,0,0,1,.58.18,1.47,1.47,0,0,1,.45.38,2.94,2.94,0,0,1,.31.5c.07.15.17.4.31.76l.45,1.27c.17.48.36,1,.55,1.55s.38,1.09.56,1.6l.52,1.42c.16.43.29.76.4,1q.59,1.44,1.23,2.88c.43,1,.83,1.91,1.21,2.85s.7,1.86,1,2.76a13.22,13.22,0,0,1,.51,2.58,8.25,8.25,0,0,1-.11,2.39,6.06,6.06,0,0,1-.91,2.17,7.93,7.93,0,0,1-1.88,1.93,13.87,13.87,0,0,1-3,1.65l-.76.29a3.83,3.83,0,0,1-.95.2,2.1,2.1,0,0,1-.93-.12,1.32,1.32,0,0,1-.71-.69,1,1,0,0,1-.12-.76,1.33,1.33,0,0,1,.39-.57,2.74,2.74,0,0,1,.67-.42c.27-.11.53-.21.78-.29.53-.22,1-.45,1.53-.68a8.1,8.1,0,0,0,1.37-.81,5.93,5.93,0,0,0,1.11-1.07,4.47,4.47,0,0,0,.77-1.47,1.14,1.14,0,0,0,0-.51,5,5,0,0,0-.12-.71c-.05-.25-.12-.5-.19-.74S573.51,906.11,573.46,906Zm-6.78-21.89a1.44,1.44,0,0,1-.84,0,6.78,6.78,0,0,1-1-.3,5.63,5.63,0,0,1-.92-.44,1.1,1.1,0,0,1-.47-.41,2,2,0,0,1-.13-.64,1.65,1.65,0,0,1,.13-.66,1.85,1.85,0,0,1,.39-.58,2.11,2.11,0,0,1,.7-.45,1.18,1.18,0,0,1,.74,0,4.26,4.26,0,0,1,1,.38,4.8,4.8,0,0,1,.87.56,1.49,1.49,0,0,1,.5.58,2,2,0,0,1,.16.69,1.21,1.21,0,0,1-.13.52,1.13,1.13,0,0,1-.36.4A2.93,2.93,0,0,1,566.68,884.06Z" transform="translate(-466.36 -694.72)"/>
      <path class="cls-1" d="M581.47,897.83a1.46,1.46,0,0,1-.05-.6,2.78,2.78,0,0,1,.16-.77,1.31,1.31,0,0,1,.4-.58.58.58,0,0,1,.65,0,7.74,7.74,0,0,0,1.23.51,2.8,2.8,0,0,0,1,.12,3.7,3.7,0,0,0,1-.21c.36-.13.78-.29,1.28-.5a8.92,8.92,0,0,0,1.73-.95,15,15,0,0,0,1.51-1.18,7.53,7.53,0,0,0,1-1.1q.38-.51.3-.69a.75.75,0,0,0-.5-.37,4,4,0,0,0-1-.14,11.84,11.84,0,0,0-1.39.07,14.5,14.5,0,0,0-1.62.28c-.64.17-1.3.34-2,.5a18.36,18.36,0,0,1-2,.38,14.33,14.33,0,0,1-1.93.13,6.11,6.11,0,0,1-1.75-.27,3.75,3.75,0,0,1-2.46-2.34,5.49,5.49,0,0,1-.41-2,6.41,6.41,0,0,1,.31-2,7.22,7.22,0,0,1,.89-1.86,9.38,9.38,0,0,1,1.37-1.65,11.47,11.47,0,0,1,1.71-1.38,11.09,11.09,0,0,1,1.92-1,6.81,6.81,0,0,1,2-.52,5,5,0,0,1,1.72.1,3.48,3.48,0,0,1,1.32.6,2.44,2.44,0,0,1,.79,1q.15.38.33.87a4.22,4.22,0,0,1,.24,1,1.91,1.91,0,0,1-.08.87,1,1,0,0,1-.61.6.69.69,0,0,1-.5.05.73.73,0,0,1-.35-.21,1.36,1.36,0,0,1-.25-.36q-.11-.21-.18-.39a2.07,2.07,0,0,0-.58-.87,1.62,1.62,0,0,0-.81-.33,2.88,2.88,0,0,0-1.06.11,11.1,11.1,0,0,0-1.3.44,5.62,5.62,0,0,0-1,.58,8,8,0,0,0-1,.85,8.34,8.34,0,0,0-.92,1,6.47,6.47,0,0,0-.69,1.13,4.1,4.1,0,0,0-.34,1.12,1.9,1.9,0,0,0,.1,1,1.3,1.3,0,0,0,.85.78,4,4,0,0,0,1.47.13,12,12,0,0,0,1.89-.28c.68-.14,1.37-.3,2.08-.48.87-.21,1.74-.38,2.62-.51a10.28,10.28,0,0,1,2.45-.1,4.8,4.8,0,0,1,2,.64,3.38,3.38,0,0,1,1.35,1.68,2.6,2.6,0,0,1,.12,1.65,4.9,4.9,0,0,1-.74,1.62,9.15,9.15,0,0,1-1.32,1.51,15.44,15.44,0,0,1-1.62,1.33,18.12,18.12,0,0,1-1.64,1.06,12.58,12.58,0,0,1-1.38.69c-.29.12-.64.25-1,.38a11.29,11.29,0,0,1-1.21.33,7.66,7.66,0,0,1-1.25.17,4.3,4.3,0,0,1-1.2-.11,2.73,2.73,0,0,1-1-.5A2.3,2.3,0,0,1,581.47,897.83Z" transform="translate(-466.36 -694.72)"/>
    </g>
    <g id="json">
      <path class="cls-1" d="M604.42,703.11a1.49,1.49,0,0,1,.3-.33,1.64,1.64,0,0,1,.43-.24,1.44,1.44,0,0,1,.51-.08,1.07,1.07,0,0,1,.53.17.75.75,0,0,1,.27.29,1.47,1.47,0,0,1,.13.37c0,.14,0,.28.07.42a3,3,0,0,0,.1.38,1.52,1.52,0,0,0,.14.21l.22.21.23.18.19.12a4.13,4.13,0,0,0,1.36.52,5,5,0,0,0,1.49,0,3.69,3.69,0,0,0,1.35-.43,2.56,2.56,0,0,0,1-.92c.08-.14.37-.58.87-1.33s1.17-1.84,2-3.25c.36-.6.69-1.2,1-1.81s.63-1.23,1-1.84a4.8,4.8,0,0,1,.39-.53,1.83,1.83,0,0,1,.49-.4,1.33,1.33,0,0,1,.56-.15,1.08,1.08,0,0,1,.63.2.67.67,0,0,1,.32.39,1.29,1.29,0,0,1,0,.48,2.07,2.07,0,0,1-.12.49,3.15,3.15,0,0,1-.17.36c-.19.31-.4.67-.62,1.07s-.47.83-.72,1.29l-.81,1.42c-.28.5-.57,1-.87,1.49-.17.27-.35.57-.56.89l-.65,1c-.23.33-.46.66-.69,1s-.44.6-.64.85-.39.47-.55.64a1.91,1.91,0,0,1-.38.34,6.71,6.71,0,0,1-7.17-.13,6.32,6.32,0,0,1-.73-.55,4.32,4.32,0,0,1-.73-.81,2.45,2.45,0,0,1-.42-1A1.4,1.4,0,0,1,604.42,703.11Z" transform="translate(-466.36 -694.72)"/>
      <path class="cls-1" d="M616.92,709.68a1.57,1.57,0,0,1,.39-.38,2.32,2.32,0,0,1,.59-.34.94.94,0,0,1,.56-.06c.17,0,.27.18.29.43a8.08,8.08,0,0,0,0,1.35,2.17,2.17,0,0,0,.27.88,2.05,2.05,0,0,0,.55.63,9.62,9.62,0,0,0,.86.59,4.93,4.93,0,0,0,1.43.58,6.89,6.89,0,0,0,1.53.19,4.51,4.51,0,0,0,1.33-.18,1.3,1.3,0,0,0,.79-.52.91.91,0,0,0,.09-.63,2.71,2.71,0,0,0-.3-.83,5.85,5.85,0,0,0-.61-1,8.62,8.62,0,0,0-.86-1l-1.18-1c-.4-.36-.78-.72-1.14-1.1a9.09,9.09,0,0,1-.94-1.17,4.57,4.57,0,0,1-.6-1.24,3.13,3.13,0,0,1-.14-1.29,3.25,3.25,0,0,1,.49-1.37,5.26,5.26,0,0,1,1.15-1.35,5.52,5.52,0,0,1,1.43-.85,5.94,5.94,0,0,1,1.61-.4,7.18,7.18,0,0,1,1.67,0,7.81,7.81,0,0,1,3.14,1.09,4.94,4.94,0,0,1,1.21,1,3.8,3.8,0,0,1,.67,1.18,2.93,2.93,0,0,1,.16,1.2,2.41,2.41,0,0,1-.34,1.08l-.36.58a3,3,0,0,1-.47.57,1.69,1.69,0,0,1-.56.35.76.76,0,0,1-.64-.11.62.62,0,0,1-.26-.28.52.52,0,0,1,0-.3,1.12,1.12,0,0,1,.1-.31l.15-.28a2.71,2.71,0,0,0,.41-1,1.55,1.55,0,0,0-.08-.81,1.87,1.87,0,0,0-.49-.69,5.06,5.06,0,0,0-.85-.62,2.93,2.93,0,0,0-.82-.34,5.68,5.68,0,0,0-1-.17,7,7,0,0,0-1.12,0,5,5,0,0,0-1.1.22,3.73,3.73,0,0,0-.94.46,2.27,2.27,0,0,0-.68.7,1.29,1.29,0,0,0-.16,1,3.12,3.12,0,0,0,.54,1.08,9.66,9.66,0,0,0,1,1.11c.39.37.8.74,1.22,1.11s.67.62,1,.94a11.77,11.77,0,0,1,.9,1,6.25,6.25,0,0,1,.69,1,3.81,3.81,0,0,1,.41,1.09,3.12,3.12,0,0,1,0,1.14,3.15,3.15,0,0,1-.46,1.19,3,3,0,0,1-1.11,1.11,4.17,4.17,0,0,1-1.46.51,6.32,6.32,0,0,1-1.63,0,10.2,10.2,0,0,1-1.61-.27,12,12,0,0,1-1.43-.47,8.65,8.65,0,0,1-1.06-.53c-.21-.13-.44-.28-.69-.47a5.9,5.9,0,0,1-.73-.61,5,5,0,0,1-.64-.74,3,3,0,0,1-.43-.86,2.22,2.22,0,0,1-.09-1A2.58,2.58,0,0,1,616.92,709.68Z" transform="translate(-466.36 -694.72)"/>
      <path class="cls-1" d="M632,712.36a11.06,11.06,0,0,1,1.74-2.23,7.93,7.93,0,0,1,1.95-1.38,6.48,6.48,0,0,1,2.06-.64,7.85,7.85,0,0,1,2.11,0,8.9,8.9,0,0,1,2.06.52,11.67,11.67,0,0,1,1.94,1,8.63,8.63,0,0,1,2.55,2.29,6.86,6.86,0,0,1,1.24,2.84,7.81,7.81,0,0,1-.11,3.25,11.92,11.92,0,0,1-1.47,3.5,8.14,8.14,0,0,1-3.23,3,7.76,7.76,0,0,1-2,.69,8.48,8.48,0,0,1-2.07.17,8,8,0,0,1-2.06-.36,7.92,7.92,0,0,1-1.92-.87,6.57,6.57,0,0,1-1.69-1.46,8.71,8.71,0,0,1-1.2-1.9,10.13,10.13,0,0,1-.94-4.4,9.36,9.36,0,0,1,.27-2.14A6.71,6.71,0,0,1,632,712.36Zm2,.83a6.55,6.55,0,0,0-.66,1.53,7.44,7.44,0,0,0-.26,1.71,9.09,9.09,0,0,0,.11,1.73,7.48,7.48,0,0,0,.48,1.65,6.11,6.11,0,0,0,.84,1.42,4.41,4.41,0,0,0,1.18,1.06,6.81,6.81,0,0,0,2.27.91,5.59,5.59,0,0,0,2.34,0,5.66,5.66,0,0,0,2.2-1,7.11,7.11,0,0,0,1.86-2.1,8.55,8.55,0,0,0,1.06-2.57,6.31,6.31,0,0,0,.07-2.4,5.24,5.24,0,0,0-.83-2.06A5.44,5.44,0,0,0,643,711.5a8.31,8.31,0,0,0-2.34-1,6.38,6.38,0,0,0-2.45-.17,5.58,5.58,0,0,0-2.3.84A5.9,5.9,0,0,0,634,713.19Z" transform="translate(-466.36 -694.72)"/>
      <path class="cls-1" d="M646.51,728.45l.54-.91c.2-.35.39-.66.56-.95.27-.44.55-.91.86-1.39l.92-1.49,1-1.51.92-1.51q.47-.77.87-1.56c.27-.54.58-1.09.93-1.66a2.27,2.27,0,0,1,.67-.67,1.38,1.38,0,0,1,.46-.18.6.6,0,0,1,.45.09,1.39,1.39,0,0,1,.59.64,1.9,1.9,0,0,1,.17.83,3.74,3.74,0,0,1-.13,1q-.12.51-.27,1c-.11.35-.2.69-.29,1a4.32,4.32,0,0,0-.15,1c0,.54,0,1.14,0,1.78s0,1.29,0,1.94,0,1.28,0,1.89,0,1.15,0,1.63.09,1,.13,1.48.09.89.14,1.26.1.66.15.89.11.37.17.4.09,0,.21-.19.27-.34.44-.58l.58-.81.62-.89.58-.84c.18-.25.32-.46.43-.63.55-.89,1-1.68,1.45-2.35l1.12-1.82.88-1.43.72-1.19a9.81,9.81,0,0,1,.59-.89,2.69,2.69,0,0,1,.56-.56,1,1,0,0,1,.56-.22,1,1,0,0,1,.59.17,2.08,2.08,0,0,1,.41.31.61.61,0,0,1,.21.35,1,1,0,0,1,0,.49,4.76,4.76,0,0,1-.36.72c-.43.72-.88,1.41-1.33,2.08s-.91,1.36-1.36,2.07q-1.17,1.8-2.41,3.63l-2.5,3.66c-.19.28-.4.58-.61.9a3.85,3.85,0,0,1-.71.82,1.8,1.8,0,0,1-.88.42,1.72,1.72,0,0,1-1.14-.33,1,1,0,0,1-.24-.22,2.11,2.11,0,0,1-.18-.27,1.69,1.69,0,0,1-.12-.28,1.24,1.24,0,0,1,0-.23,29.31,29.31,0,0,1-.5-3.09c-.11-1.07-.19-2.14-.23-3.22s-.06-2.15-.05-3.22.06-2.09.11-3.07q-1.54,2.56-2.27,3.92c-.48.9-.74,1.4-.79,1.51s-.2.51-.33.83a6.89,6.89,0,0,1-.5,1,3,3,0,0,1-.37.52,1.46,1.46,0,0,1-.44.36.91.91,0,0,1-.48.13,1,1,0,0,1-.53-.17,1.53,1.53,0,0,1-.55-.51,1.09,1.09,0,0,1-.14-.57,1.81,1.81,0,0,1,.15-.62C646.27,728.88,646.38,728.67,646.51,728.45Z" transform="translate(-466.36 -694.72)"/>
    </g>
    <g id="js">
      <path class="cls-1" d="M682.06,726.7a2,2,0,0,1,.27-.74,2.47,2.47,0,0,1,1.4-1.18,2.1,2.1,0,0,1,1-.09,1.36,1.36,0,0,1,.68.29,4.32,4.32,0,0,1,.5.54c.15.21.29.42.43.64a2.9,2.9,0,0,0,.45.56,1.45,1.45,0,0,0,.4.25,4.65,4.65,0,0,0,.52.2,5.36,5.36,0,0,0,.54.14l.42.07a7.92,7.92,0,0,0,2.74-.07,9.6,9.6,0,0,0,2.62-.93,6.85,6.85,0,0,0,2-1.65,4.33,4.33,0,0,0,1-2.19c0-.29.22-1.22.53-2.81s.69-3.85,1.14-6.78c.19-1.23.32-2.46.4-3.69s.2-2.47.39-3.73a6.92,6.92,0,0,1,.29-1.15,3.38,3.38,0,0,1,.55-1,2.26,2.26,0,0,1,.86-.64,2.3,2.3,0,0,1,1.25-.11,1.34,1.34,0,0,1,.83.43,2,2,0,0,1,.44.78,3.31,3.31,0,0,1,.15.88,3.89,3.89,0,0,1,0,.72c-.1.64-.19,1.37-.29,2.19s-.2,1.7-.31,2.64-.23,1.91-.36,2.92-.26,2-.42,3.07c-.08.56-.19,1.17-.32,1.85s-.26,1.37-.42,2.07-.31,1.39-.47,2.07-.33,1.3-.5,1.86-.33,1-.48,1.44a4.13,4.13,0,0,1-.4.82,13.43,13.43,0,0,1-5.78,4.17,14,14,0,0,1-6.77.52,10.79,10.79,0,0,1-1.67-.41,8.31,8.31,0,0,1-1.85-.83,4.63,4.63,0,0,1-1.43-1.31A2.36,2.36,0,0,1,682.06,726.7Z" transform="translate(-466.36 -694.72)"/>
      <path class="cls-1" d="M708.56,729a2.57,2.57,0,0,1,.38-.89,4.46,4.46,0,0,1,.79-1,1.86,1.86,0,0,1,.93-.5c.32,0,.59.12.82.52a13.69,13.69,0,0,0,1,2.23,4.6,4.6,0,0,0,1.12,1.28,4.16,4.16,0,0,0,1.41.66c.53.14,1.18.27,1.93.39a9.67,9.67,0,0,0,2.89,0,12.72,12.72,0,0,0,2.81-.74,8,8,0,0,0,2.18-1.2,2.37,2.37,0,0,0,1-1.41,1.57,1.57,0,0,0-.31-1.1,5.37,5.37,0,0,0-1.13-1.19,14.13,14.13,0,0,0-1.76-1.17,19.58,19.58,0,0,0-2.21-1c-.92-.27-1.85-.56-2.8-.88s-1.88-.66-2.78-1a17.13,17.13,0,0,1-2.49-1.29,9.32,9.32,0,0,1-2-1.64,5.67,5.67,0,0,1-1.18-2.06,5.56,5.56,0,0,1-.15-2.6,9.08,9.08,0,0,1,1-3,9.66,9.66,0,0,1,1.86-2.39,11.05,11.05,0,0,1,2.48-1.77,14.32,14.32,0,0,1,2.92-1.12,15.6,15.6,0,0,1,3.12-.49,14.77,14.77,0,0,1,3.13.15,9.18,9.18,0,0,1,2.84.87,7.1,7.1,0,0,1,2,1.5,5.43,5.43,0,0,1,1.16,1.88,4.13,4.13,0,0,1,.21,2c-.06.36-.13.76-.21,1.22a5.55,5.55,0,0,1-.4,1.27,2.58,2.58,0,0,1-.72.95,1.38,1.38,0,0,1-1.17.26,1.18,1.18,0,0,1-.67-.27,1.07,1.07,0,0,1-.29-.49,1.82,1.82,0,0,1,0-.58c0-.2,0-.39.07-.56a5,5,0,0,0,0-1.91,2.65,2.65,0,0,0-.72-1.29,3.63,3.63,0,0,0-1.36-.8,10.41,10.41,0,0,0-1.92-.46,6,6,0,0,0-1.69,0,10.84,10.84,0,0,0-1.91.43,13.27,13.27,0,0,0-1.93.79,9.88,9.88,0,0,0-1.73,1.12,7.22,7.22,0,0,0-1.31,1.41,3.77,3.77,0,0,0-.65,1.62,2.24,2.24,0,0,0,.46,1.8,5.91,5.91,0,0,0,1.72,1.41,16.62,16.62,0,0,0,2.53,1.16c1,.35,1.93.69,2.93,1,.81.27,1.62.56,2.43.88a20.7,20.7,0,0,1,2.28,1,13.86,13.86,0,0,1,2,1.24,7.27,7.27,0,0,1,1.5,1.54,5.68,5.68,0,0,1,.88,1.88,5.75,5.75,0,0,1,.07,2.28,5.45,5.45,0,0,1-1.12,2.62,7.87,7.87,0,0,1-2.16,1.84,12.49,12.49,0,0,1-2.79,1.2,19.43,19.43,0,0,1-3,.65,20.1,20.1,0,0,1-2.82.2,16.8,16.8,0,0,1-2.22-.14c-.46-.07-1-.17-1.54-.31a13.5,13.5,0,0,1-1.72-.51,10.1,10.1,0,0,1-1.66-.79,5.86,5.86,0,0,1-1.37-1.14,4.13,4.13,0,0,1-.86-1.53A4.39,4.39,0,0,1,708.56,729Z" transform="translate(-466.36 -694.72)"/>
    </g>
  </g>
</svg>
